<svg width="80" height="80" viewBox="0 0 80 80" fill="none" xmlns="http://www.w3.org/2000/svg">
<path fill-rule="evenodd" clip-rule="evenodd" d="M40.1579 2.29078C57.8975 7.24261 66.1814 13.3956 75.6647 28.088C76.4337 46.493 73.1443 56.2689 62.1016 69.8276C44.8367 76.2501 34.5189 76.1406 18.2107 69.8276C6.7684 55.3933 3.68204 45.545 4.64968 28.088C14.8401 12.7455 23.2519 6.76585 40.1579 2.29078Z" fill="#0090D4" stroke="white" stroke-width="3.25067" stroke-miterlimit="10"/>
<path d="M15.4077 31.6188L14.6158 32.7558L13.0664 35.0929L12.0352 38.086L11.4869 39.3576L11.5889 41.4574L12.4499 42.9001L12.7567 44.5838L13.1722 45.7565L14.099 47.4754L14.0303 48.3699L14.2405 49.2995L14.9609 50.6073L15.6484 51.4664L15.8534 52.4995" stroke="#231F20" stroke-width="0.330667" stroke-miterlimit="2.613"/>
<path fill-rule="evenodd" clip-rule="evenodd" d="M40.1579 60.2131C38.6809 59.8169 37.1927 59.1117 35.8786 58.1471C35.6085 57.9458 35.3396 57.7322 35.0828 57.5059C34.9846 57.4205 34.8852 57.3303 34.7874 57.2417C33.0862 57.9317 30.638 58.7185 28.1402 59.161C26.0499 59.5292 23.9136 59.6639 22.1251 59.2938C20.266 58.9157 18.7797 58.0071 18.0796 56.2938C17.9631 56.0032 17.8657 55.6831 17.7983 55.3462C17.7957 55.3462 17.7957 55.3462 17.7957 55.3441C16.3622 54.3941 15.6572 53.2404 15.4254 52.3128C15.3755 52.1144 15.346 51.9234 15.336 51.7541C15.3291 51.6536 15.3291 51.5605 15.336 51.4626C14.3531 50.4852 13.7515 49.4748 13.6732 48.5309C13.6568 48.332 13.6651 48.1319 13.7012 47.9251C13.7213 47.8096 13.7456 47.6978 13.7797 47.589H13.7778L13.775 47.5855L13.7829 47.5813C13.289 46.996 12.8961 46.4041 12.6329 45.7142C12.3533 44.9934 12.2171 44.1853 12.2564 43.1998C10.5003 41.5883 10.7191 39.0588 11.7959 36.9191C13.0523 34.4143 14.7353 32.0389 15.4681 29.9381C15.8762 28.7691 16.1951 29.4963 16.1951 29.8605C16.1913 31.609 15.9116 33.4844 15.5607 35.1646C15.5223 35.3397 15.4833 35.5198 15.3674 36.0942C15.1904 36.9584 15.1925 37.7621 15.4346 38.3508C15.5353 38.5881 15.6743 38.7915 15.8623 38.9501C16.0493 39.1053 16.2858 39.219 16.5808 39.2795C17.2619 39.4131 18.2205 39.2675 19.5244 38.72C22.6937 37.3909 25.7599 36.2167 27.9449 36.0698C30.3825 35.9036 31.8023 36.882 31.3313 39.9762C31.2672 40.4009 31.196 40.8429 31.1311 41.231C30.9562 42.273 30.8617 42.8534 30.9302 43.4144C30.9793 43.8319 31.0901 44.3117 31.3881 44.7977C31.6365 45.2037 32.0218 45.6222 32.6062 46.0291C32.6344 45.9445 32.6645 45.86 32.6975 45.7815C32.5268 44.0169 32.7005 42.2543 33.4465 40.5951C33.5812 40.3016 33.7298 40.0097 33.902 39.7228L30.4882 23.1057C30.2521 21.9629 29.9923 21.2519 29.5364 20.9108C28.936 20.4649 27.94 20.5926 27.2542 20.7062C26.6675 20.8037 26.6675 20.4618 27.0818 20.2233C27.7187 19.8641 28.4965 19.3482 29.1889 18.8872C30.4393 18.0526 31.7037 17.3123 33.1033 18.3721C33.2792 17.1783 34.2209 16.5574 35.111 15.9409C35.3648 15.7484 36.0045 15.3851 36.3479 14.8933C36.6689 14.4306 37.0442 14.2645 37.1072 14.809C37.1225 14.9537 37.1769 15.2413 37.2241 15.5533C37.8662 14.8583 38.8239 14.4626 39.4502 13.7917C39.8087 13.4107 39.8184 13.0524 40.1579 13.0332C40.4909 13.0524 40.505 13.4107 40.8596 13.7917C41.4888 14.4626 42.4465 14.8583 43.0871 15.5533C43.1338 15.2413 43.1878 14.9537 43.2043 14.809C43.2685 14.2645 43.6416 14.4306 43.9637 14.8933C44.308 15.3851 44.9447 15.7484 45.2013 15.9409C46.085 16.5574 47.0312 17.1783 47.207 18.3721C48.6094 17.3123 49.8721 18.0526 51.1219 18.8872C51.8169 19.3482 52.5947 19.8641 53.2307 20.2233C53.6461 20.4618 53.6431 20.8037 53.0553 20.7062C52.3731 20.5926 51.3754 20.4649 50.7725 20.9108C50.32 21.2519 50.0585 21.9629 49.8248 23.1057L46.4113 39.7228C46.5774 40.0097 46.7325 40.3016 46.864 40.5951C47.6085 42.2543 47.7866 44.0169 47.6135 45.7815C47.6476 45.86 47.6771 45.9445 47.7042 46.0291C48.2916 45.6222 48.6753 45.2037 48.9234 44.7977C49.2214 44.3117 49.333 43.8319 49.3816 43.4144C49.4487 42.8534 49.3552 42.273 49.1821 41.231C49.1178 40.8429 49.0421 40.4009 48.9799 39.9762C48.5078 36.882 49.9293 35.9036 52.3665 36.0698C54.5554 36.2167 57.6169 37.3909 60.7912 38.72C62.0888 39.2675 63.0504 39.4131 63.7317 39.2795C64.0254 39.219 64.261 39.1053 64.4491 38.9501C64.6391 38.7915 64.7784 38.5881 64.8756 38.3508C65.12 37.7621 65.1234 36.9584 64.9468 36.0942C64.8284 35.5198 64.7921 35.3397 64.7516 35.1646C64.4017 33.4844 64.1182 31.609 64.1182 29.8605C64.1182 29.4963 64.4382 28.7691 64.8442 29.9381C65.5757 32.0389 67.2593 34.4143 68.5127 36.9191C69.5912 39.0588 69.8124 41.5883 68.0525 43.1998C68.0956 44.1853 67.958 44.9934 67.6768 45.7142C67.4167 46.4041 67.0207 46.996 66.5306 47.5813L66.5368 47.5855L66.5336 47.589H66.5306C66.5635 47.6978 66.59 47.8096 66.6134 47.9251C66.6463 48.1319 66.6536 48.332 66.6393 48.5309C66.562 49.4748 65.958 50.4852 64.9733 51.4626C64.9791 51.5605 64.9791 51.6536 64.9733 51.7541C64.965 51.9234 64.9343 52.1144 64.8845 52.3128C64.6542 53.2404 63.9503 54.3941 62.5144 55.3441C62.5144 55.3462 62.5144 55.3462 62.5136 55.3462C62.4452 55.6831 62.3492 56.0032 62.2297 56.2938C61.5334 58.0071 60.0465 58.9157 58.1866 59.2938C56.3955 59.6639 54.2617 59.5292 52.171 59.161C49.6749 58.7185 47.2284 57.9317 45.5261 57.2417C45.4271 57.3303 45.3291 57.4205 45.2301 57.5059C44.9665 57.7322 44.7033 57.9458 44.4335 58.1471C43.1195 59.1117 41.6284 59.8169 40.1579 60.2131Z" fill="#231F20"/>
<path fill-rule="evenodd" clip-rule="evenodd" d="M39.2501 33.8525C39.5731 34.2632 39.9054 34.6818 40.1579 35.1936C40.4055 34.6818 40.7402 34.2632 41.0602 33.8525C41.5654 33.2147 42.0503 32.6028 42.0725 31.6845C42.0945 30.7358 41.5389 29.9571 40.9807 29.1814C40.684 28.765 40.3865 28.3503 40.1579 27.8958C39.9253 28.3503 39.6264 28.765 39.3308 29.1814C38.7722 29.9571 38.217 30.7358 38.2414 31.6845C38.2614 32.6028 38.7462 33.2147 39.2501 33.8525Z" fill="white"/>
<path fill-rule="evenodd" clip-rule="evenodd" d="M18.1986 54.6824C18.9813 55.0199 19.6985 55.1953 20.4148 55.275C21.0637 55.3462 21.7298 55.3362 22.45 55.3087C22.9444 55.2848 22.9973 56.0907 22.4361 56.1138C21.7096 56.1514 21.0214 56.1514 20.3252 56.0743C19.7984 56.0192 19.2699 55.9145 18.7237 55.7415C18.755 55.84 18.79 55.9334 18.827 56.0284C19.4067 57.4551 20.6837 58.2193 22.2904 58.5465C23.9655 58.8891 25.9982 58.7621 28.0065 58.4075C30.1 58.037 32.1518 57.4207 33.7422 56.8291C31.3679 56.3938 29.5288 55.5847 28.2603 54.3469C26.8297 52.952 26.1442 51.0342 26.288 48.5249C26.3798 46.8871 26.8744 45.2071 27.3367 43.6417C27.6571 42.5501 27.9616 41.5127 28.0912 40.6103C28.3294 38.9413 27.9149 37.7038 25.6534 37.3608C23.9175 37.8335 21.903 38.6353 19.8304 39.5048C18.3674 40.1206 17.2466 40.2775 16.4189 40.1074C15.987 40.022 15.6287 39.8519 15.3441 39.6077C15.0564 39.3678 14.84 39.06 14.6944 38.7029C14.3796 37.9524 14.3683 36.9887 14.5757 35.9776C14.5905 35.9121 14.6827 35.4726 14.7719 35.0449C14.9687 34.1001 15.1529 33.2199 15.3 32.2863C14.9318 33.0148 14.5081 33.7499 14.0857 34.4856C12.7719 36.7755 11.4534 39.076 11.9023 41.0199C12.4626 43.4598 15.326 44.0169 17.4148 44.3179C18.317 44.4476 18.2112 45.2491 17.2253 45.0923C16.0714 44.9074 14.7416 44.6129 13.6859 44.1548C13.4711 44.056 13.2616 43.9527 13.0626 43.8408C13.0904 44.4562 13.2013 44.986 13.3845 45.4626C14.281 47.7887 16.0374 48.0479 18.2767 48.2765C19.3124 48.3862 19.2707 49.1806 18.2265 49.0831C17.1038 48.987 15.8609 48.7806 14.9318 48.3911C14.7719 48.3238 14.6219 48.2498 14.4859 48.1778C14.2639 49.4237 15.2566 50.5883 16.4417 51.162C17.6622 51.7539 19.0908 51.7364 20.0513 51.6611C20.7666 51.6077 20.7759 52.4639 20.0645 52.4696C19.3021 52.4741 18.4679 52.4639 17.6812 52.355C17.141 52.2826 16.627 52.1618 16.1715 51.9791C16.1791 52.0363 16.1935 52.0923 16.2093 52.1546C16.3975 52.9145 16.9881 53.8653 18.1986 54.6824Z" fill="white"/>
<path fill-rule="evenodd" clip-rule="evenodd" d="M37.6849 37.0336C35.9332 38.2027 34.8224 39.5399 34.1789 40.9666C33.6888 42.0599 33.4685 43.2166 33.4459 44.3909C33.896 43.7141 34.4346 43.1 34.9846 42.4744C36.1878 41.1053 37.4181 39.6987 37.6425 37.5549C37.6596 37.3837 37.673 37.2138 37.6849 37.0336Z" fill="white"/>
<path fill-rule="evenodd" clip-rule="evenodd" d="M24.9772 61.4695C24.9814 61.4471 24.9782 61.467 24.9772 61.4695V61.4695Z" fill="white"/>
<path fill-rule="evenodd" clip-rule="evenodd" d="M62.1138 54.6824C61.3302 55.0199 60.612 55.1953 59.8978 55.275C59.2476 55.3462 58.5808 55.3362 57.8605 55.3087C57.3657 55.2848 57.3149 56.0907 57.8737 56.1138C58.605 56.1514 59.2873 56.1514 59.987 56.0743C60.5166 56.0192 61.0417 55.9145 61.5885 55.7415C61.5586 55.84 61.5255 55.9334 61.485 56.0284C60.9025 57.4551 59.6282 58.2193 58.0212 58.5465C56.3452 58.8891 54.3149 58.7621 52.3078 58.4075C50.2133 58.037 48.1601 57.4207 46.5729 56.8291C48.9415 56.3938 50.7877 55.5847 52.0513 54.3469C53.4861 52.952 54.1663 51.0342 54.0239 48.5249C53.9309 46.8871 53.4367 45.2071 52.9736 43.6417C52.656 42.5501 52.3482 41.5127 52.2201 40.6103C51.984 38.9413 52.3971 37.7038 54.6592 37.3608C56.3915 37.8335 58.4105 38.6353 60.4801 39.5048C61.9448 40.1206 63.0636 40.2775 63.8929 40.1074C64.3273 40.022 64.681 39.8519 64.9702 39.6077C65.2568 39.3678 65.4722 39.06 65.6192 38.7029C65.9322 37.9524 65.9439 36.9887 65.7388 35.9776C65.7247 35.9121 65.6323 35.4726 65.5435 35.0449C65.3422 34.1001 65.1603 33.2199 65.0122 32.2863C65.3806 33.0148 65.8022 33.7499 66.2229 34.4856C67.5403 36.7755 68.8566 39.076 68.4103 41.0199C67.8485 43.4598 64.9842 44.0169 62.8976 44.3179C61.993 44.4476 62.0989 45.2491 63.0839 45.0923C64.2406 44.9074 65.574 44.6129 66.6282 44.1548C66.8436 44.056 67.0528 43.9527 67.2461 43.8408C67.2225 44.4562 67.1113 44.986 66.929 45.4626C66.0318 47.7887 64.272 48.0479 62.0325 48.2765C60.9994 48.3862 61.0395 49.1806 62.0867 49.0831C63.2086 48.987 64.4489 48.7806 65.3806 48.3911C65.5386 48.3238 65.6884 48.2498 65.8302 48.1778C66.0487 49.4237 65.0556 50.5883 63.8707 51.162C62.6523 51.7539 61.2199 51.7364 60.2598 51.6611C59.5484 51.6077 59.5375 52.4639 60.2466 52.4696C61.0124 52.4741 61.8434 52.4639 62.6312 52.355C63.1736 52.2826 63.6844 52.1618 64.1403 51.9791C64.1326 52.0363 64.1183 52.0923 64.1042 52.1546C63.9149 52.9145 63.3224 53.8653 62.1138 54.6824Z" fill="white"/>
<path fill-rule="evenodd" clip-rule="evenodd" d="M42.6277 37.0336C44.3809 38.2027 45.4875 39.5399 46.1297 40.9666C46.6258 42.0599 46.8439 43.2166 46.8663 44.3909C46.4155 43.7141 45.873 43.1 45.3289 42.4744C44.1246 41.1053 42.8932 39.6987 42.6689 37.5549C42.6516 37.3837 42.6375 37.2138 42.6277 37.0336Z" fill="white"/>
<path fill-rule="evenodd" clip-rule="evenodd" d="M40.1578 53.4748C39.9494 53.4748 39.9172 53.8129 39.8107 54.1185C39.7159 54.3962 39.6005 54.6487 39.4553 54.9053C39.381 55.041 39.3068 55.1759 39.2444 55.3149H39.2431C38.6318 56.6797 39.2916 57.6079 40.1578 58.5002C41.0532 57.5646 41.6803 56.6797 41.0664 55.3149C41.0075 55.1759 40.9296 55.041 40.8568 54.9053C40.7117 54.6487 40.5941 54.3962 40.5017 54.1185C40.393 53.8129 40.3616 53.4748 40.1578 53.4748Z" fill="white"/>
<path fill-rule="evenodd" clip-rule="evenodd" d="M41.7754 34.5276C41.7494 34.5577 41.721 34.5929 41.693 34.6253C41.2542 35.1805 40.8016 35.7583 40.6176 36.5658C40.4136 37.4684 39.9052 37.5455 39.7009 36.6046C39.5479 35.8729 39.1669 35.3303 38.7722 34.8255V34.8456C38.699 34.7461 38.6153 34.6435 38.5389 34.5397C38.5389 35.5227 38.5331 36.7771 38.4441 37.6307C38.1897 40.0336 36.8742 41.5401 35.5852 43.0076C34.5731 44.1585 33.5884 45.2857 33.2397 46.7882L33.1156 47.3239L32.6452 47.0482C31.6663 46.4787 31.07 45.8642 30.7016 45.2614C30.3265 44.6484 30.1874 44.0631 30.1261 43.5542C30.0473 42.8887 30.1483 42.2674 30.3385 41.1455C30.3889 40.8208 30.4501 40.4473 30.5327 39.903C30.896 37.5449 29.8268 36.7965 27.9946 36.9194C27.7782 36.9329 27.5528 36.9583 27.3193 36.9946C28.8529 37.6968 29.1284 39.0358 28.8836 40.7148C28.7508 41.6757 28.4373 42.7408 28.108 43.8657C27.6648 45.3813 27.1837 47.0038 27.096 48.5641C26.9673 50.83 27.5651 52.5417 28.8262 53.7707C30.1073 55.023 32.0849 55.7997 34.6889 56.1671L34.921 56.286H34.9244H34.9263C35.1447 56.5161 35.3739 56.7342 35.6134 56.9406C35.8518 57.1474 36.1001 57.3472 36.3596 57.5393C37.2228 58.175 39.0017 59.4962 40.0439 59.4791C41.1336 59.4672 43.9515 57.5393 43.9515 57.5393C43.9515 57.5393 44.4608 57.1474 44.7001 56.9406C44.9376 56.7342 45.1681 56.5161 45.3882 56.286L45.6224 56.1671C48.2277 55.7997 50.2042 55.023 51.4849 53.7707C52.7466 52.5417 53.3431 50.83 53.2194 48.5641C53.1269 47.0038 52.6524 45.3813 52.2021 43.8657C51.8755 42.7408 51.5617 41.6757 51.4258 40.7148C51.1852 39.0358 51.4599 37.6968 52.9931 36.9946C52.7598 36.9583 52.5342 36.9329 52.3173 36.9194C50.486 36.7965 49.4155 37.5449 49.7758 39.903C49.8601 40.4473 49.9216 40.8208 49.9758 41.1455C50.1621 42.2674 50.2655 42.8887 50.1873 43.5542C50.1235 44.0631 49.9839 44.6484 49.6095 45.2614C49.2392 45.8642 48.6431 46.4787 47.671 47.0482L47.1963 47.3239L47.0708 46.7882C46.7244 45.2857 45.7344 44.1585 44.7265 43.0076C43.4364 41.5401 42.1144 40.0336 41.8689 37.6307C41.7797 36.7732 41.7696 35.5128 41.7754 34.5276Z" fill="white"/>
<path fill-rule="evenodd" clip-rule="evenodd" d="M37.7321 33.3868C37.5583 33.0077 37.4431 32.5791 37.4322 32.0609C37.404 30.8464 38.0386 29.958 38.674 29.0707C39.2482 28.2677 39.7139 27.7589 39.8934 26.605C39.9858 26.0263 40.3005 26.1196 40.3865 26.6201C40.5731 27.6955 41.0533 28.2508 41.6367 29.0707C42.2723 29.958 42.9062 30.8464 42.8819 32.0609C42.8682 32.5791 42.7532 33.0077 42.5826 33.3868C42.5886 34.234 42.5724 35.3379 42.5886 36.1486C43.9637 36.9864 45.004 37.9223 45.7786 38.9219L45.795 38.8474L49.0358 23.0739C49.3126 21.7322 49.6445 20.8773 50.2924 20.3966C50.5449 20.2075 50.8358 20.0846 51.172 20.0205C51.0785 19.9556 50.9839 19.8933 50.8926 19.8302C49.8682 19.142 48.8349 18.4508 47.7547 19.1371C47.3551 19.3922 47.1688 19.5823 47.0887 20.0331L45.4939 28.8534C45.3479 29.5187 44.5493 29.3915 44.7141 28.6353L46.2535 20.1036C46.354 19.5697 46.5092 18.9798 46.354 18.4459C46.118 17.6577 45.376 17.1458 44.7032 16.6794C44.3953 16.466 44.0966 16.2626 43.8488 16.0372C43.8187 16.2415 43.7878 16.4397 43.7634 16.6009H43.7666L42.7707 26.7448C42.696 27.3706 41.8941 27.3021 41.9748 26.5699L42.8256 17.9399C42.9105 17.0684 42.9536 16.6532 42.3015 16.0321C42.0258 15.7715 41.7041 15.5211 41.3948 15.2805C41.0695 15.0342 40.7485 14.8257 40.4949 14.5753C40.362 14.447 40.2461 14.3066 40.1579 14.1616C40.0633 14.3066 39.9508 14.447 39.8177 14.5753C39.5652 14.8257 39.2394 15.0342 38.9182 15.2805C38.607 15.5211 38.2864 15.7715 38.0098 16.0321C37.3581 16.6532 37.4025 17.0684 37.4853 17.9399L38.338 26.5699C38.4183 27.3021 37.6157 27.3706 37.5419 26.7448L36.5461 16.6009H36.5493C36.5237 16.4397 36.4924 16.2415 36.4621 16.0372C36.2117 16.2626 35.9163 16.466 35.604 16.6794C34.9361 17.1458 34.1905 17.6577 33.962 18.4459C33.8053 18.9798 33.9592 19.5697 34.0569 20.1036L35.5974 28.6353C35.7609 29.3915 34.9632 29.5187 34.8179 28.8534L33.223 20.0331C33.1432 19.5823 32.9575 19.3922 32.5572 19.1371C31.4763 18.4508 30.4462 19.142 29.4217 19.8302C29.3274 19.8933 29.2337 19.9556 29.1393 20.0205C29.4772 20.0846 29.7664 20.2075 30.0219 20.3966C30.6644 20.8773 31.0008 21.7322 31.2783 23.0739L34.5176 38.8474L34.5357 38.9219C35.3064 37.9223 36.3487 36.9864 37.7222 36.1486C37.7402 35.3366 37.7222 34.234 37.7321 33.3868Z" fill="white"/>
<path fill-rule="evenodd" clip-rule="evenodd" d="M40.4615 66.2626C41.5369 66.1878 42.3868 65.8273 43.3911 65.4519C44.9104 64.8794 46.2744 64.3706 48.9668 65.0489C49.7066 65.2337 50.495 65.5759 51.3269 65.933C53.0709 66.6833 54.9992 67.5168 57.2466 67.3285L57.4607 66.6071C56.5002 65.8504 56.1871 64.4241 55.8893 63.0796C55.8139 62.7257 55.7362 62.3755 55.6421 62.0094C55.6421 62.0164 55.6421 62.0164 55.6421 62.0094L55.5676 61.7285L55.2784 61.7044C53.6206 61.5786 52.4951 61.0818 51.0283 60.559C50.3947 60.3362 49.9032 60.0184 49.1096 59.7688C46.9439 59.0945 44.7173 59.7481 42.8818 60.2134C41.913 60.4619 41.1166 61.1039 40.2485 61.1343H40.2442L40.1879 61.1349L40.1294 61.1343H40.1226C39.2594 61.1039 39.0077 60.4619 38.0387 60.2134C36.2041 59.7481 34.221 59.2438 32.0579 59.9199C31.262 60.1692 30.3877 60.6854 29.7569 60.9099C28.2912 61.4346 27.1341 61.7729 25.6411 61.7044L25.3535 61.7285L25.2793 62.0094C25.2793 62.0164 25.2793 62.0164 25.2801 62.0094C25.1836 62.3755 25.1068 62.7257 25.0306 63.0796C24.7328 64.4241 24.4186 65.8504 23.4579 66.6071L23.6716 67.3285C25.9209 67.5168 27.8505 66.6833 29.592 65.933C30.4231 65.5759 31.2178 65.2337 31.9503 65.0489C34.6466 64.3706 36.0077 64.8794 37.5279 65.4519C38.5296 65.8273 39.3832 66.1878 40.4615 66.2626Z" fill="white"/>
<path d="M46.6196 64.4549C47.3549 64.4549 48.1459 64.5633 49.0333 64.7861C49.7775 64.9752 50.5583 65.3093 51.3824 65.6634L51.4458 65.6916C52.9658 66.3445 54.6862 67.0858 56.5995 67.0858C56.7468 67.0858 56.8947 67.0807 57.0426 67.073L57.1523 66.6994C56.2275 65.8655 55.9225 64.479 55.6262 63.1372C55.5575 62.8149 55.4783 62.4508 55.3792 62.0783L55.3553 61.9821L55.2565 61.9722C53.8081 61.8634 52.7686 61.4824 51.5675 61.0405C51.3634 60.9648 51.154 60.8888 50.9365 60.8111C50.6508 60.7114 50.3985 60.5945 50.1319 60.473C49.8021 60.3191 49.4608 60.1622 49.0292 60.0275C48.4283 59.8393 47.7976 59.7498 47.1009 59.7498C45.7748 59.7498 44.4567 60.0864 43.2943 60.3857C43.1769 60.4147 43.0635 60.445 42.9494 60.4738C42.5634 60.5714 42.195 60.7445 41.8401 60.9076C41.3114 61.1518 40.8127 61.3836 40.2576 61.4026L40.188 61.4047L40.1146 61.4026C39.5703 61.385 39.2292 61.1543 38.8994 60.9326C38.6418 60.7579 38.373 60.5759 37.9713 60.473C36.781 60.1712 35.554 59.8611 34.2621 59.8611C33.5133 59.8611 32.8194 59.9639 32.1383 60.1772C31.7096 60.3108 31.2552 60.5287 30.8157 60.7387C30.4676 60.9042 30.1372 61.0606 29.8471 61.1631C28.3649 61.6943 27.3141 61.9821 26.0166 61.9821C25.8951 61.9821 25.7709 61.9802 25.6471 61.9759L25.5669 61.9821L25.5474 62.0546L25.5126 62.2788H25.4902C25.4271 62.5272 25.3739 62.7716 25.3214 63.009L25.2932 63.1372C24.9967 64.479 24.6924 65.8655 23.7677 66.6994L23.8766 67.073C24.0232 67.0807 24.1724 67.0858 24.3192 67.0858C26.2349 67.0858 27.9551 66.3445 29.4751 65.6886L29.4954 65.6803C30.3385 65.3191 31.1334 64.9761 31.884 64.787C32.7726 64.5633 33.5619 64.4549 34.2986 64.4549C35.6467 64.4549 36.607 64.8173 37.6236 65.2004C37.7222 65.2365 37.8217 65.2747 37.919 65.3121C38.7886 65.6399 39.5402 65.9242 40.4614 65.9912C41.378 65.9242 42.1237 65.6429 42.9876 65.3161C43.089 65.2777 43.192 65.239 43.2979 65.1993C44.3116 64.8173 45.2706 64.4549 46.6196 64.4549ZM56.5995 67.626C54.5756 67.626 52.801 66.8606 51.2324 66.1863L51.1701 66.1584C50.3651 65.8134 49.6044 65.4862 48.9016 65.3093C48.0563 65.0978 47.3111 64.9932 46.6196 64.9932C45.3683 64.9932 44.4535 65.3394 43.4857 65.7035C43.3824 65.7426 43.2804 65.7829 43.1788 65.8201C42.3077 66.1502 41.4836 66.4608 40.4795 66.5293L40.4614 66.5304L40.4413 66.5293C39.4324 66.4608 38.6049 66.1473 37.7282 65.8152C37.6315 65.7791 37.5331 65.7426 37.4322 65.7035C36.4635 65.3394 35.5479 64.9932 34.2986 64.9932C33.6074 64.9932 32.8618 65.0978 32.0155 65.3093C31.3075 65.4899 30.5304 65.8245 29.709 66.1765L29.6889 66.1853C28.1212 66.8595 26.3464 67.626 24.3192 67.626C24.0983 67.626 23.8717 67.6153 23.6501 67.5979L23.4661 67.5818L23.1483 66.5084L23.2921 66.3947C24.1762 65.6965 24.4742 64.3372 24.766 63.0215L24.794 62.8913C24.8606 62.5981 24.9269 62.2911 25.0106 61.9772V61.9759L25.1414 61.4747L25.6362 61.4339L25.6552 61.4344C25.776 61.4408 25.8975 61.4427 26.0166 61.4427C27.236 61.4427 28.2409 61.1671 29.6667 60.6553C29.9312 60.5612 30.249 60.4094 30.5827 60.2508C31.0411 60.0329 31.5124 59.8077 31.9773 59.6628C32.712 59.4339 33.4584 59.321 34.2621 59.321C35.6224 59.321 36.8821 59.6403 38.1022 59.95C38.5961 60.0766 38.9182 60.2937 39.2021 60.4852C39.5035 60.6892 39.7421 60.8491 40.1265 60.8634H40.2443C40.6849 60.8491 41.1365 60.6403 41.6134 60.4184C41.9905 60.2429 42.382 60.0627 42.8147 59.9507C42.9295 59.9217 43.0443 59.8916 43.1607 59.8623C44.354 59.5579 45.7075 59.2096 47.1009 59.2096C47.8531 59.2096 48.5353 59.3089 49.1891 59.5131C49.655 59.6591 50.0123 59.823 50.3581 59.9833C50.613 60.0997 50.8522 60.2113 51.1167 60.304C51.3359 60.3823 51.5472 60.46 51.7526 60.5342C52.9178 60.9627 53.9244 61.331 55.3 61.4344L55.778 61.4747L55.9105 61.9759C56.0072 62.3464 56.0858 62.7044 56.1553 63.0235C56.4439 64.3372 56.7427 65.6965 57.6279 66.3947L57.7709 66.5084L57.4531 67.5818L57.2697 67.5979C57.0476 67.6153 56.823 67.626 56.5995 67.626Z" fill="#231F20"/>
<path d="M56.4951 64.9598C56.5518 65.0947 56.612 65.2313 56.6831 65.3692C55.049 65.737 53.2255 65.0373 51.5516 64.2831C50.2957 63.7165 49.0391 63.1493 47.8477 63.0947C46.4887 63.0373 45.2152 63.1581 43.9728 63.458C42.7314 63.7566 41.5168 64.2245 40.2694 64.8543C40.2605 64.8593 40.2535 64.8635 40.2391 64.8674C40.2391 64.8704 40.2361 64.8704 40.2342 64.8725H40.23C40.23 64.8725 40.2293 64.8746 40.2272 64.8746C40.2265 64.8763 40.2212 64.8793 40.2182 64.8793H40.215H40.2122H40.2101H40.2063V64.8829H40.2011V64.8836H40.1969H40.1952H40.19H40.1837H40.1811C40.1811 64.8836 40.1811 64.8853 40.1779 64.8853H40.1747H40.1668L40.1646 64.8874H40.1629H40.1536H40.1497H40.1484H40.1408C40.1395 64.8853 40.1382 64.8853 40.1382 64.8853H40.1346H40.1294H40.1245C40.1226 64.8853 40.1226 64.8836 40.1226 64.8836H40.1192H40.1177H40.1154H40.1143H40.1113H40.1075H40.1045V64.8829H40.1006V64.8793H40.0923H40.0914H40.0861C40.0861 64.8793 40.0801 64.8763 40.0754 64.8725H40.0709L40.0682 64.8704H40.066C40.066 64.8704 40.0633 64.8704 40.0603 64.8674H40.0558V64.8646C40.0511 64.8635 40.046 64.8593 40.0423 64.8593C40.0423 64.8593 40.0402 64.8593 40.037 64.8543C38.7898 64.2245 37.571 63.7566 36.329 63.458C35.0829 63.1581 33.8144 63.0373 32.4552 63.0947C31.2532 63.1493 30.1113 63.7182 28.9834 64.278C27.5021 65.0104 25.8989 65.6543 24.274 65.2861L24.4654 64.8746C25.9341 65.207 27.3749 64.5781 28.7862 63.8746C29.9551 63.2928 31.1437 62.7075 32.4345 62.6469C33.8345 62.5809 35.1448 62.7135 36.4313 63.0193C37.6789 63.3192 38.8995 63.7878 40.1536 64.4116C41.4012 63.7878 42.6257 63.3192 43.871 63.0193C45.1557 62.7135 46.4677 62.5809 47.869 62.6469C49.1429 62.7075 50.4398 63.2889 51.7354 63.8746C53.3393 64.5952 55.0029 65.2953 56.4951 64.9598ZM40.1346 64.8853H40.1294H40.1346Z" fill="#231F20"/>
<path d="M39.8969 60.9761H40.3458V64.4587H39.8969V60.9761Z" fill="#231F20"/>
<path d="M16.3843 26.8757C14.9651 26.2005 14.2537 25.8616 12.833 25.1864C12.5674 25.7527 12.4398 26.0406 12.195 26.6311C11.8991 26.5083 11.7514 26.446 11.4558 26.323C12.1273 24.7025 12.5062 23.935 13.3371 22.4863C13.6135 22.647 13.7538 22.7275 14.0302 22.8885C13.7275 23.4157 13.5807 23.6863 13.2998 24.2347C14.6961 24.9602 15.3933 25.3233 16.7898 26.0468C16.6229 26.3747 16.5405 26.5395 16.3843 26.8757Z" fill="#231F20"/>
<path d="M13.6801 21.9017C13.8976 21.5405 14.0084 21.3623 14.2357 21.0114C15.0927 21.5776 15.5211 21.8603 16.3771 22.4257C16.7166 22.6511 16.944 22.7879 17.0554 22.8342C17.2387 22.9087 17.4198 22.9145 17.5986 22.8585C17.7781 22.8001 17.9367 22.6684 18.0816 22.4607C18.2262 22.2506 18.2951 22.0635 18.2821 21.8904C18.2699 21.7196 18.2086 21.5736 18.0945 21.4549C17.9801 21.3362 17.7758 21.1621 17.478 20.936C16.6398 20.304 16.2223 19.9871 15.3854 19.3542C15.63 19.0233 15.7536 18.8641 16.0086 18.5437C16.7826 19.1698 17.17 19.4839 17.9436 20.113C18.3854 20.4701 18.6833 20.7426 18.8351 20.9268C18.9881 21.113 19.0898 21.3068 19.138 21.5083C19.1864 21.7094 19.1843 21.9237 19.1341 22.1523C19.0836 22.3808 18.9589 22.6308 18.764 22.913C18.5265 23.2515 18.3103 23.4871 18.1038 23.6122C17.9009 23.7375 17.6927 23.8122 17.4831 23.8334C17.2748 23.8522 17.0827 23.8344 16.9036 23.7742C16.643 23.6846 16.2848 23.5014 15.8321 23.2244C14.9719 22.6957 14.5414 22.4306 13.6801 21.9017Z" fill="#231F20"/>
<path d="M20.9007 20.1147C19.748 19.0397 19.1713 18.504 18.0174 17.4288C17.6289 17.8511 17.4405 18.0677 17.0688 18.5132C16.8242 18.305 16.7017 18.2011 16.4567 17.994C17.4759 16.7704 18.0193 16.2003 19.1581 15.1471C19.3754 15.3832 19.4842 15.5019 19.7013 15.7373C19.2878 16.1196 19.0849 16.3179 18.6864 16.7236C19.8072 17.8342 20.3657 18.3892 21.4846 19.4999C21.2477 19.7417 21.1308 19.8641 20.9007 20.1147Z" fill="#231F20"/>
<path d="M24.4551 16.9053C23.0068 15.6167 22.2578 14.996 20.7065 13.8069C21.0184 13.5574 21.1744 13.4326 21.4912 13.1939C22.5093 14.0592 23.0075 14.5049 23.9802 15.4125C23.473 14.1711 23.2369 13.5403 22.7938 12.2656C23.1744 12.0082 23.3654 11.8834 23.7539 11.6436C24.743 12.5913 25.222 13.0761 26.1531 14.0684C25.7048 12.795 25.4952 12.1517 25.1012 10.8522C25.4391 10.6669 25.6092 10.5775 25.9499 10.4014C26.4199 12.2936 26.6824 13.2291 27.2783 15.0733C26.9772 15.2413 26.8275 15.3277 26.5315 15.5079C25.5155 14.4628 24.9934 13.9534 23.9101 12.9636C24.3808 14.3501 24.6335 15.0351 25.1804 16.3852C24.8867 16.5877 24.7409 16.6898 24.4551 16.9053Z" fill="#231F20"/>
<path d="M26.3799 10.1862C26.7208 10.017 26.8935 9.93443 27.2397 9.77771C27.6736 10.71 27.889 11.1758 28.3197 12.1096C28.4926 12.4791 28.6124 12.7151 28.6817 12.815C28.7944 12.9751 28.94 13.0816 29.1101 13.1339C29.2822 13.1873 29.4736 13.169 29.6877 13.0797C29.9039 12.9877 30.0472 12.8712 30.1161 12.7245C30.1868 12.5768 30.2068 12.4238 30.1703 12.2658C30.1334 12.1056 30.0459 11.8501 29.9078 11.5008C29.5236 10.5241 29.3338 10.0381 28.9473 9.06143C29.3016 8.92446 29.4794 8.86012 29.8367 8.73331C30.1748 9.67197 30.3438 10.1408 30.6796 11.0763C30.8732 11.6125 30.9855 11.999 31.0237 12.2343C31.0598 12.4697 31.0506 12.6844 30.9946 12.8774C30.9404 13.0705 30.8378 13.2434 30.6898 13.4035C30.5406 13.563 30.3225 13.7011 30.032 13.8229C29.6792 13.9687 29.3949 14.039 29.1714 14.027C28.9473 14.0153 28.7449 13.9598 28.566 13.8601C28.3887 13.7606 28.2401 13.6368 28.1242 13.4889C27.9543 13.2706 27.7509 12.9235 27.5118 12.4486C27.0597 11.5442 26.8339 11.09 26.3799 10.1862Z" fill="#231F20"/>
<path d="M32.2551 10.0716C32.5057 9.99933 32.6302 9.96584 32.885 9.90036C33.2955 9.79274 33.5488 9.71635 33.6423 9.65295C33.7369 9.59255 33.8024 9.50808 33.8396 9.40234C33.878 9.29867 33.8812 9.17581 33.8509 9.03733C33.8155 8.8823 33.7482 8.76546 33.6453 8.68606C33.5457 8.60855 33.4154 8.57035 33.266 8.58427C33.1932 8.58841 32.9715 8.63545 32.6112 8.72934C32.3326 8.80064 32.1937 8.83827 31.917 8.91617C32.0522 9.37844 32.1194 9.60949 32.2551 10.0716ZM32.246 12.9265C31.6626 11.1229 31.3738 10.2202 30.7883 8.41758C31.5465 8.17788 31.9279 8.07026 32.7004 7.87929C33.1868 7.75944 33.551 7.72219 33.7905 7.75944C34.0297 7.79688 34.2361 7.90939 34.409 8.09566C34.5841 8.28475 34.6968 8.51598 34.7499 8.79161C34.8176 9.141 34.7764 9.44655 34.6344 9.71146C34.4936 9.97393 33.8951 10.3147 33.8951 10.3147C33.8951 10.3288 34.2816 10.4891 34.4302 10.6046C34.5779 10.7201 34.7896 10.9402 35.0558 11.2633C35.3247 11.5863 35.4562 11.7493 35.7138 12.0793C35.3358 12.1468 35.1476 12.1818 34.7725 12.2624C34.4596 11.9073 34.2972 11.7312 33.9642 11.3862C33.6714 11.0778 33.4686 10.8883 33.3651 10.8161C33.2633 10.7423 33.1616 10.7002 33.065 10.6893C32.9663 10.6772 32.8235 10.6962 32.6332 10.7502C32.5651 10.7677 32.5328 10.7784 32.4645 10.7974C32.6848 11.5562 32.795 11.9357 33.0155 12.6975C32.7068 12.7837 32.5527 12.83 32.246 12.9265Z" fill="#231F20"/>
<path d="M36.1174 12.012C35.8064 10.144 35.6545 9.2082 35.3428 7.3416C35.7162 7.28139 35.9033 7.25561 36.275 7.20519C36.5309 9.08139 36.6555 10.0199 36.9093 11.8966C36.5913 11.9388 36.4312 11.9608 36.1174 12.012Z" fill="#231F20"/>
<path d="M39.2021 11.6941C39.112 9.80394 39.0691 8.85775 38.9754 6.96669C39.354 6.94995 39.5406 6.94468 39.9175 6.93753C39.9312 7.68184 39.9393 8.05662 39.9515 8.79867C40.6465 8.78663 40.9944 8.7919 41.6868 8.81881C41.7175 8.07469 41.7329 7.70291 41.7613 6.95785C42.1381 6.97478 42.3267 6.98362 42.7022 7.00996C42.5703 8.89613 42.5016 9.84176 42.3669 11.7292C42.046 11.7084 41.8872 11.6991 41.5681 11.685C41.6025 10.8591 41.6196 10.4455 41.6529 9.61975C40.9786 9.59265 40.6407 9.5887 39.9656 9.59943C39.9816 10.4273 39.9865 10.8408 40.001 11.6702C39.6817 11.6751 39.5216 11.6792 39.2021 11.6941Z" fill="#231F20"/>
<path d="M45.6096 10.2421C45.5059 9.51098 45.4467 9.14372 45.3131 8.41164C44.9607 9.06827 44.7917 9.39828 44.4677 10.0643C44.924 10.1266 45.1528 10.162 45.6096 10.2421ZM46.7172 12.3813C46.3782 12.3029 46.2062 12.2654 45.8643 12.1964C45.8171 11.7475 45.7895 11.524 45.7294 11.0756C45.0803 10.9546 44.7547 10.9025 44.1005 10.8201C43.9091 11.2293 43.8135 11.4357 43.6348 11.8464C43.2978 11.8066 43.1276 11.7908 42.7895 11.7625C43.5691 9.92735 44.0158 9.02199 45.006 7.24927C45.4015 7.3059 45.5983 7.33676 45.9919 7.4043C46.3994 9.39715 46.5409 10.3951 46.7172 12.3813Z" fill="#231F20"/>
<path d="M47.1365 12.4826C47.6117 10.6486 47.8499 9.72909 48.3201 7.89635C48.677 7.98459 48.8535 8.03163 49.2072 8.13154C49.5954 9.55543 49.7485 10.2696 49.9758 11.6883C50.4001 10.4958 50.6134 9.89917 51.0384 8.70708C51.3701 8.82297 51.5334 8.88205 51.8646 9.00698C51.1788 10.7752 50.836 11.66 50.1478 13.4275C49.8469 13.3138 49.6945 13.2574 49.3914 13.1528C49.1963 11.7765 49.0605 11.0845 48.7145 9.70501C48.373 10.892 48.1993 11.4866 47.8593 12.6747C47.5717 12.5936 47.4275 12.5543 47.1365 12.4826Z" fill="#231F20"/>
<path d="M53.3304 10.487C52.8038 11.6257 52.5413 12.1982 52.013 13.3371C52.2405 13.4408 52.3522 13.4933 52.5763 13.6007C52.7855 13.7012 52.9468 13.7627 53.0512 13.7836C53.191 13.8088 53.3208 13.8031 53.4446 13.7627C53.5686 13.7213 53.7024 13.6229 53.8563 13.462C54.007 13.3017 54.1731 13.0613 54.3462 12.7394C54.5201 12.4174 54.6298 12.154 54.6672 11.9527C54.7045 11.7505 54.6994 11.5745 54.6548 11.4255C54.6049 11.2765 54.5124 11.1458 54.3756 11.0331C54.2727 10.9486 54.0512 10.8201 53.7082 10.6601C53.5586 10.5885 53.4832 10.5542 53.3304 10.487ZM52.7938 9.37698C53.4335 9.64265 53.7526 9.78771 54.3797 10.0916C54.7315 10.2624 54.9861 10.4267 55.141 10.5732C55.3481 10.7736 55.4871 11.0172 55.5556 11.2916C55.6235 11.5693 55.6262 11.8641 55.5611 12.1751C55.496 12.487 55.3509 12.8347 55.1257 13.2204C54.9287 13.5574 54.7214 13.825 54.5061 14.0272C54.2407 14.2739 53.9729 14.4445 53.7001 14.5382C53.4964 14.612 53.2679 14.6319 53.013 14.6016C52.823 14.5774 52.5948 14.498 52.3236 14.3653C51.7746 14.0998 51.4979 13.9738 50.9364 13.7416C51.6802 11.9969 52.0535 11.1228 52.7938 9.37698Z" fill="#231F20"/>
<path d="M57.4469 15.2704C57.6685 14.5601 57.7748 14.2011 57.9712 13.4787C57.3613 13.9112 57.0629 14.1338 56.4741 14.5885C56.8664 14.8523 57.0629 14.988 57.4469 15.2704ZM57.5312 17.7195C57.2536 17.4877 57.115 17.375 56.8292 17.1549C56.9789 16.7272 57.0514 16.512 57.1929 16.0775C56.6491 15.6702 56.3735 15.4756 55.8081 15.1065C55.4557 15.3904 55.279 15.533 54.9319 15.8258C54.641 15.6388 54.4924 15.5475 54.1953 15.3712C55.7086 14.0623 56.5146 13.4427 58.1955 12.2888C58.5338 12.5182 58.6996 12.6358 59.0335 12.8773C58.5387 14.8642 58.2388 15.8358 57.5312 17.7195Z" fill="#231F20"/>
<path d="M58.2867 18.369C58.8194 17.7728 59.0856 17.4752 59.6169 16.8782C59.8634 15.6228 59.9582 14.982 60.0888 13.68C60.4469 13.9634 60.6216 14.1092 60.9699 14.4091C60.8305 15.2784 60.7445 15.7079 60.5545 16.5555C61.3746 16.2908 61.791 16.17 62.6401 15.9566C62.9629 16.2806 63.1231 16.4456 63.4346 16.7847C62.1392 17.0042 61.505 17.1476 60.2721 17.4921C59.7238 18.0714 59.4469 18.3589 58.8986 18.9355C58.6549 18.7064 58.5338 18.5914 58.2867 18.369Z" fill="#231F20"/>
<path d="M62.8254 20.4821C63.2207 19.8431 63.4122 19.5195 63.7808 18.8614C63.0756 19.1118 62.7264 19.2437 62.0378 19.5214C62.3594 19.8966 62.5185 20.0879 62.8254 20.4821ZM62.3101 22.946C62.0939 22.632 61.9842 22.4772 61.7565 22.1724C62.0096 21.7918 62.134 21.5989 62.3788 21.2093C61.9434 20.6431 61.7206 20.3684 61.2551 19.8392C60.8384 20.0162 60.628 20.1079 60.2164 20.2949C59.9733 20.0264 59.8529 19.8952 59.6036 19.6379C61.4151 18.7788 62.3575 18.3987 64.2933 17.7517C64.5697 18.0757 64.7076 18.2414 64.9733 18.5786C64.0032 20.4034 63.4661 21.2796 62.3101 22.946Z" fill="#231F20"/>
<path d="M62.5812 23.3401C64.153 22.2769 64.9361 21.7435 66.4994 20.6784C66.725 21.0163 66.8339 21.1864 67.0476 21.5343C66.4322 22.9348 66.089 23.6121 65.3423 24.9043C66.4553 24.3026 67.0117 24.0024 68.1223 23.4026C68.3082 23.7544 68.4008 23.9318 68.578 24.2938C66.8885 25.1403 66.0426 25.5647 64.3464 26.4106C64.1835 26.0776 64.099 25.9147 63.9268 25.5926C64.667 24.3612 65.0124 23.7164 65.6345 22.3783C64.5919 23.0411 64.0706 23.3734 63.0243 24.0345C62.8503 23.7527 62.7628 23.614 62.5812 23.3401Z" fill="#231F20"/>
<path d="M64.7537 27.2718C66.4781 26.4874 67.3392 26.0927 69.0589 25.307C69.2418 25.7076 69.3283 25.9128 69.4976 26.323C67.7528 27.0483 66.8779 27.4116 65.1268 28.1343C64.9802 27.7849 64.9059 27.6129 64.7537 27.2718Z" fill="#231F20"/>
<path d="M39.1416 55.2512C39.1416 55.2512 38.5947 56.0961 38.6082 56.4265C38.6338 57.041 39.5824 58.1537 40.1124 58.158C40.6338 58.1607 41.5875 57.0771 41.6153 56.469C41.6306 56.1507 41.1019 55.336 41.1019 55.336C41.1019 55.336 41.1745 53.8216 40.8769 53.5206C40.6042 53.2442 39.6882 53.2224 39.4334 53.5206C39.1657 53.8339 39.1416 55.2512 39.1416 55.2512ZM39.1115 53.0482C39.4818 52.6856 40.8155 52.7123 41.2131 53.0482C41.6468 53.4113 41.5427 55.2512 41.5427 55.2512C41.5427 55.2512 42.3109 56.2384 42.2883 56.6265C42.2454 57.3641 40.8588 58.6818 40.0987 58.676C39.3273 58.673 37.9455 57.3219 37.9092 56.5765C37.888 56.1712 38.684 55.1475 38.684 55.1475C38.684 55.1475 38.7213 53.4275 39.1115 53.0482Z" fill="#231F20"/>
<path fill-rule="evenodd" clip-rule="evenodd" d="M43.0211 46.0842C43.023 46.0882 43.0266 46.098 43.0211 46.0842V46.0842Z" fill="white"/>
<path fill-rule="evenodd" clip-rule="evenodd" d="M41.8843 44.0652C41.2331 43.0195 40.5865 41.8217 40.1357 40.393C39.584 41.8579 39.9022 43.2925 40.1748 44.5209C40.4888 45.9203 40.8188 47.3448 40.0834 49.5361C39.8175 50.3407 39.1195 49.7988 39.3223 49.3209C40.5511 46.4526 39.0762 43.7375 38.7041 42.9461C38.4171 43.9614 37.6156 45.0993 37.1774 46.0801C36.578 47.4291 36.3488 49.1608 37.1898 50.4236C37.3488 50.6656 37.5483 50.8872 37.7913 51.0906C37.9827 51.2483 38.1989 51.3913 38.4453 51.5222C38.5902 51.4236 38.7532 51.338 38.9232 51.2709C38.9718 51.2456 39.0239 51.2263 39.0749 51.2073C39.394 51.0944 39.7392 51.0293 40.0973 51.0293C40.6136 51.0293 41.102 51.1578 41.5238 51.3837C41.6013 51.4244 41.6756 51.4729 41.7526 51.5222C43.3003 50.7042 43.692 49.2285 43.5078 47.8088C43.4719 47.5077 43.4102 47.2082 43.3246 46.9203C43.2391 46.6283 43.1375 46.3478 43.0211 46.0842V46.0827V46.0801C42.7103 45.3879 42.3076 44.7358 41.8843 44.0652Z" fill="white"/>
<path fill-rule="evenodd" clip-rule="evenodd" d="M40.5092 38.5247C40.8812 41.2291 41.7803 42.2521 42.6086 43.6747C43.0392 44.3657 43.4573 45.037 43.7888 45.7785C43.7896 45.7853 43.7914 45.7868 43.7929 45.7917C43.7929 45.7868 43.7914 45.7868 43.7929 45.7874V45.7917C43.9263 46.0882 44.0422 46.4013 44.1316 46.7239C44.2261 47.0461 44.2976 47.3811 44.3406 47.7149C44.5726 49.4969 44.0325 51.361 41.8849 52.3309L41.6345 52.4436L41.4251 52.2728C41.3709 52.227 41.3205 52.1892 41.2723 52.1576C41.2247 52.1236 41.1649 52.0905 41.1073 52.0572C40.8097 51.8972 40.4663 51.8047 40.0974 51.8047C39.842 51.8047 39.5963 51.8487 39.3726 51.9296C39.3374 51.9405 39.3015 51.9574 39.2663 51.9676C39.0876 52.0481 38.9194 52.149 38.7683 52.2728L38.5579 52.4406L38.3064 52.3309L38.2994 52.3258C37.8883 52.1397 37.5369 51.9172 37.233 51.6649C36.9303 51.4165 36.6827 51.1381 36.4836 50.8338C35.4793 49.3209 35.7213 47.3238 36.4061 45.7853C36.9698 44.5209 37.9786 43.4769 38.2413 41.8873C38.3389 41.3266 38.4404 40.7287 38.9373 41.697C39.0087 41.8333 39.1045 42.0133 39.1858 42.3025C38.9262 41.3004 39.6991 39.1616 39.9745 38.4453C40.2189 37.8133 40.4477 37.6205 40.5092 38.5247Z" fill="#FBD106"/>
<path d="M41.4213 51.9344C41.4766 51.9728 41.5353 52.0162 41.5965 52.0665L41.6727 52.1295L41.7746 52.0842C44.1231 51.0241 44.2211 48.9143 44.071 47.7502C44.0301 47.4345 43.9628 47.1146 43.8704 46.7984C43.7876 46.5039 43.6802 46.2074 43.5511 45.9173L43.4749 45.8087L43.4898 45.7786C43.1745 45.0954 42.7863 44.4747 42.378 43.8189C42.2339 43.5743 42.0924 43.344 41.9547 43.1203C41.2674 42.0134 40.5562 40.8661 40.2384 38.5611L40.2373 38.5419C40.236 38.5331 40.236 38.5229 40.236 38.5148C40.2315 38.5248 40.2271 38.5331 40.2253 38.543C39.9816 39.1737 39.2029 41.3048 39.4454 42.2337L38.9254 42.3769C38.8497 42.1195 38.7671 41.9579 38.6949 41.8254C38.6456 41.7259 38.6042 41.6535 38.5679 41.5983C38.5442 41.709 38.5208 41.8426 38.5056 41.9327C38.3257 43.0147 37.8236 43.8428 37.3398 44.6444C37.0832 45.0685 36.8405 45.4678 36.6516 45.8964C35.865 47.6595 35.8836 49.4495 36.7049 50.6858C36.8949 50.9737 37.1284 51.2326 37.4021 51.4567C37.6981 51.702 38.0349 51.9105 38.4083 52.0806L38.5141 52.1295L38.5965 52.0616C38.7622 51.9267 38.9515 51.8119 39.1549 51.7222L39.1822 51.7124C39.1938 51.7084 39.204 51.7041 39.2181 51.699C39.2401 51.6883 39.2635 51.6798 39.2866 51.6717C39.5427 51.5826 39.8175 51.5359 40.0945 51.5359C40.4915 51.5359 40.8849 51.633 41.2324 51.8177L41.2683 51.839C41.3199 51.8691 41.3722 51.9015 41.4213 51.9344ZM41.5893 52.7566L41.2501 52.4808C41.2029 52.4407 41.1607 52.4104 41.1223 52.3842L41.1105 52.3762C41.0819 52.3549 41.0394 52.331 40.9978 52.3067L40.9724 52.2917C40.5188 52.049 39.9545 52.01 39.4603 52.1831C39.4433 52.1893 39.4302 52.1942 39.4206 52.198C39.4002 52.2074 39.381 52.2142 39.362 52.2204C39.2068 52.2889 39.0642 52.3773 38.9372 52.4808L38.5965 52.7534L38.1639 52.562C37.7553 52.375 37.3827 52.144 37.0603 51.8732C36.7451 51.616 36.4736 51.3146 36.2552 50.9827C35.3316 49.5912 35.2975 47.6095 36.1573 45.6759C36.3615 45.2181 36.6253 44.7856 36.8776 44.3656C37.3366 43.6083 37.8108 42.8238 37.9726 41.8426C38.051 41.385 38.1306 40.9131 38.5141 40.9131C38.6689 40.9131 38.7974 41.0019 38.9182 41.1543C39.068 40.1282 39.493 38.9395 39.7201 38.3489C39.884 37.9223 40.049 37.6395 40.3191 37.6395C40.7118 37.6395 40.753 38.191 40.7743 38.4958C41.0762 40.6817 41.7263 41.7291 42.4111 42.8367C42.5521 43.064 42.696 43.2969 42.8386 43.5412C43.23 44.1649 43.6347 44.8168 43.9637 45.5169H43.9729L44.0202 45.6367L44.0604 45.677V45.7334C44.1933 46.036 44.3037 46.3451 44.3884 46.6518C44.4879 46.9895 44.5609 47.3391 44.6062 47.681C44.7763 48.9916 44.6627 51.3724 41.9948 52.5765L41.5893 52.7566Z" fill="#231F20"/>
<path d="M39.3649 41.7826C39.3649 41.7826 40.6125 44.3487 40.7585 45.7391C40.8921 47.0261 39.5028 49.696 39.5028 49.696C39.5028 49.696 40.1837 47.2082 40.0893 45.884C40.0061 44.722 38.9261 42.373 38.9261 42.373L39.3649 41.7826Z" fill="#231F20"/>
</svg>