<svg width="102" height="120" viewBox="0 0 102 120" fill="none" xmlns="http://www.w3.org/2000/svg">
<path fill-rule="evenodd" clip-rule="evenodd" d="M37.7303 116V98.7032H18.3695V75.9872L5.75983 72.3512L17.1304 52.0166L17.0162 51.3428C16.1604 46.2974 16.2495 41.2772 17.2834 36.4254C21.3394 17.3182 38.2821 3.61274 57.606 3.87604C79.7218 4.15871 97.7138 22.3888 97.7138 44.5124L97.7196 51.5771C97.7293 67.089 90.0934 81.6095 77.2901 90.4206L76.4518 90.9995V116H37.7303Z" fill="#365E7D"/>
<rect x="19" y="116" width="72" height="4" fill="#133553"/>
<path d="M101.584 44.5104C101.584 20.2785 81.8767 0.313644 57.6544 0.00387215C57.4647 0.00193608 57.2788 0 57.091 0C36.1756 0 17.8952 14.8981 13.4945 35.6199C12.4064 40.7331 12.2709 46.007 13.0879 51.3099L0 74.719L14.4973 78.899V102.575H33.8581V120H37.7303V98.7031H18.3695V75.9872L5.75983 72.3512L17.1304 52.0166L17.0162 51.3428C16.1604 46.2974 16.2495 41.2772 17.2834 36.4254C21.3394 17.3182 38.2821 3.61272 57.606 3.87603C79.7219 4.15869 97.7138 22.3888 97.7138 44.5124L97.7196 51.5771C97.7293 67.089 90.0934 81.6095 77.2901 90.4206L76.4518 90.9995V120H80.324V93.0227C93.6713 83.4372 101.6 68.0221 101.59 51.5752L101.584 44.5104Z" fill="#133553"/>
<path d="M86.1322 48.4019V36.7854H81.5611C80.9435 34.1601 79.9193 31.6839 78.504 29.3973L81.7334 26.166L73.5206 17.9532L70.2893 21.1826C68.0008 19.7673 65.5265 18.7431 62.9012 18.1255V13.5525H51.2847V18.1236C48.6594 18.7412 46.1832 19.7654 43.8967 21.1806L40.6653 17.9513L32.4525 26.1641L35.6819 29.3954C34.2666 31.6839 33.2424 34.1582 32.6248 36.7835H28.0499V48.3999H32.6209C33.2386 51.0253 34.2627 53.5015 35.678 55.788L32.4486 59.0193L40.6615 67.2322L43.8986 63.995C44.3207 64.2506 44.766 64.5023 45.2403 64.7559L47.0621 61.3407L49.3467 61.3426V55.9584C44.7214 53.2789 41.6024 48.2877 41.6024 42.5588C41.6024 34.0052 48.5374 27.0702 57.091 27.0702C65.6446 27.0702 72.5796 34.0052 72.5796 42.5588C72.5796 48.2877 69.4606 53.2789 64.8353 55.9584V61.3291L67.1528 61.3271L68.994 64.7346C69.449 64.4887 69.8769 64.2429 70.2815 63.9989L73.5186 67.236L81.7315 59.0232L78.5021 55.7919C79.9174 53.5034 80.9416 51.0291 81.5592 48.4038H86.1322V48.4019Z" fill="#BED8FB"/>
<path d="M43.5385 42.5569C43.5385 35.0856 49.6197 29.0044 57.0911 29.0044C64.5624 29.0044 70.6436 35.0856 70.6436 42.5569C70.6436 47.3662 68.0454 51.8598 63.8654 54.2818L62.8993 54.8413V59.9816H59.0271V48.0089C61.2749 47.2074 62.8993 45.0777 62.8993 42.5569C62.8993 39.3547 60.2933 36.7487 57.0911 36.7487C53.8888 36.7487 51.2828 39.3547 51.2828 42.5569C51.2828 45.0777 52.9072 47.2074 55.155 48.0089V59.9816H51.2828V54.8413L50.3167 54.2818C46.1367 51.8598 43.5385 47.3681 43.5385 42.5569ZM55.155 42.5569C55.155 41.4882 56.0223 40.6209 57.0911 40.6209C58.1598 40.6209 59.0271 41.4882 59.0271 42.5569C59.0271 43.6257 58.1598 44.493 57.0911 44.493C56.0223 44.493 55.155 43.6257 55.155 42.5569ZM48.3787 63.8538H65.8034C66.3358 63.8538 66.7714 64.2894 66.7714 64.8218C66.7714 65.3542 66.3358 65.7899 65.8034 65.7899H63.8673H50.3148H48.3787C47.8463 65.7899 47.4107 65.3542 47.4107 64.8218C47.4107 64.2894 47.8463 63.8538 48.3787 63.8538ZM63.8673 71.5981H50.3148C49.7824 71.5981 49.3467 71.1625 49.3467 70.6301C49.3467 70.0976 49.7824 69.662 50.3148 69.662H63.8673C64.3997 69.662 64.8354 70.0976 64.8354 70.6301C64.8354 71.1625 64.3997 71.5981 63.8673 71.5981Z" fill="#0099E6"/>
<circle cx="57" cy="43" r="3" fill="#FBD106"/>
<path d="M74.5158 42.5569C74.5158 32.9481 66.6998 25.1322 57.0911 25.1322C47.4823 25.1322 39.6664 32.9481 39.6664 42.5569C39.6664 48.3632 42.6073 53.8094 47.4107 57.0291V60.0803C45.2036 60.5295 43.5385 62.4849 43.5385 64.8218C43.5385 66.5449 44.4485 68.0473 45.8057 68.9069C45.6005 69.4451 45.4746 70.0221 45.4746 70.63C45.4746 73.2999 47.645 75.4702 50.3148 75.4702H63.8673C66.5372 75.4702 68.7075 73.2999 68.7075 70.63C68.7075 70.0202 68.5817 69.4432 68.3765 68.9069C69.7337 68.0492 70.6436 66.5449 70.6436 64.8218C70.6436 62.483 68.9786 60.5295 66.7715 60.0803V57.0291C71.5749 53.8094 74.5158 48.3632 74.5158 42.5569ZM43.5385 42.5569C43.5385 35.0856 49.6198 29.0044 57.0911 29.0044C64.5624 29.0044 70.6436 35.0856 70.6436 42.5569C70.6436 47.3661 68.0454 51.8597 63.8654 54.2818L62.8993 54.8413V59.9816H59.0272V48.0089C61.2749 47.2074 62.8993 45.0777 62.8993 42.5569C62.8993 39.3546 60.2934 36.7487 57.0911 36.7487C53.8888 36.7487 51.2828 39.3546 51.2828 42.5569C51.2828 45.0777 52.9072 47.2074 55.155 48.0089V59.9816H51.2828V54.8413L50.3167 54.2818C46.1368 51.8597 43.5385 47.3681 43.5385 42.5569ZM55.155 42.5569C55.155 41.4882 56.0224 40.6208 57.0911 40.6208C58.1598 40.6208 59.0272 41.4882 59.0272 42.5569C59.0272 43.6256 58.1598 44.493 57.0911 44.493C56.0224 44.493 55.155 43.6256 55.155 42.5569ZM48.3787 63.8537H65.8034C66.3358 63.8537 66.7715 64.2894 66.7715 64.8218C66.7715 65.3542 66.3358 65.7898 65.8034 65.7898H63.8673H50.3148H48.3787C47.8463 65.7898 47.4107 65.3542 47.4107 64.8218C47.4107 64.2894 47.8463 63.8537 48.3787 63.8537ZM63.8673 71.5981H50.3148C49.7824 71.5981 49.3468 71.1624 49.3468 70.63C49.3468 70.0976 49.7824 69.662 50.3148 69.662H63.8673C64.3998 69.662 64.8354 70.0976 64.8354 70.63C64.8354 71.1624 64.3998 71.5981 63.8673 71.5981Z" fill="#133553"/>
<path d="M58.9962 79.3424H55.124V83.2146H58.9962V79.3424Z" fill="#0099E6"/>
<path d="M58.9962 87.0867H55.124V90.9588H58.9962V87.0867Z" fill="#0099E6"/>
<path d="M58.9962 94.8311H55.124V98.7032H58.9962V94.8311Z" fill="#0099E6"/>
<path d="M58.9962 102.575H55.124V106.447H58.9962V102.575Z" fill="#0099E6"/>
</svg>
