<svg width="124" height="121" viewBox="0 0 124 121" fill="none" xmlns="http://www.w3.org/2000/svg">
<path d="M45.2703 20.6537V12.4883L73.6092 17.2915L75.7707 24.8565L78.7727 30.7405V54.7565H90.1803L104.11 67.2448V79.7332L107.952 83.3356L86.9381 104.47L75.7707 98.946L67.7253 92.7018L66.7647 85.6171L62.3217 83.3356L57.1582 90.1801L47.0715 100.507H41.3077L35.6639 104.47L14.5298 83.3356L19.0928 79.7332V67.2448L33.1422 54.7565H39.5065L35.6639 47.9119V33.2621L45.2703 20.6537Z" fill="#365E7D"/>
<rect x="40.3472" width="37.465" height="17.7719" fill="#0099E5"/>
<rect x="85.1099" y="108.11" width="37.465" height="14.6115" transform="rotate(-45.8641 85.1099 108.11)" fill="#FBD106"/>
<rect width="35.9275" height="15.6902" transform="matrix(-0.696363 -0.71769 -0.71769 0.696363 37.9604 108.129)" fill="#BED8FB"/>
<g filter="url(#filter0_d_1010_88)">
<path fill-rule="evenodd" clip-rule="evenodd" d="M41.5436 0.101005C40.65 0.442513 39.7703 1.28283 39.3593 2.18776C38.959 3.06963 38.9119 3.85423 38.9071 9.72423C38.9014 16.8575 38.9715 17.3138 40.2561 18.5163C40.6341 18.87 41.4161 19.28 41.9939 19.4274L43.0448 19.6954L42.9212 21.0576C42.7367 23.0916 42.0073 24.2638 39.0315 27.3083C34.4202 32.0258 34.3388 32.2825 34.3388 42.1002C34.3388 48.5051 34.3914 49.5294 34.7857 50.7962L35.2327 52.2324L33.6659 52.619C32.8042 52.8318 31.6034 53.2948 30.9974 53.6481C29.6826 54.4149 21.525 62.3883 20.0435 64.3547C18.2305 66.7611 17.962 67.8111 17.7877 73.1789C17.6392 77.7432 17.6179 77.8937 16.9495 79.1106C16.5724 79.7972 16.0172 80.591 15.7156 80.8741L15.1673 81.3893L14.4511 80.8597C13.4837 80.1445 11.8274 79.9769 10.755 80.4858C10.2949 80.7041 7.74968 83.068 5.09879 85.7391C1.03408 89.835 0.253076 90.7358 0.110901 91.4935C-0.226525 93.2916 0.117385 94.0219 2.38954 96.3308C4.14824 98.1184 4.62447 98.4757 5.24673 98.4757C6.28902 98.4757 6.96051 97.797 6.96051 96.7432C6.96051 95.9997 6.72876 95.6519 5.22271 94.136L3.48515 92.3865L7.86472 88.0066L12.2445 83.6271L24.3119 95.6942L36.3789 107.762L31.9987 112.142L27.6181 116.522L19.3826 108.3C12.1746 101.103 11.056 100.077 10.4167 100.077C9.48916 100.077 8.64163 100.945 8.64163 101.895C8.64163 102.503 9.81218 103.768 17.1073 111.04C21.7635 115.682 25.809 119.599 26.0974 119.745C26.8307 120.116 28.4746 120.076 29.2474 119.668C29.604 119.48 32.0758 117.129 34.7399 114.445C38.8624 110.29 39.6091 109.428 39.7515 108.654C39.9638 107.502 39.7582 106.466 39.1473 105.608L38.6682 104.935L39.7635 103.926C41.1257 102.67 42.3712 102.117 44.6001 101.779C48.222 101.229 48.6156 100.976 53.7918 95.8659C57.0649 92.6348 58.8464 91.0572 59.7088 90.6261C61.0902 89.9356 62.5295 88.4046 62.9256 87.205C63.1633 86.4843 63.2433 86.4319 63.7889 86.6394C64.6809 86.9788 67.1406 86.9163 68.0626 86.5311C69.2828 86.0212 70.8626 84.4761 71.3986 83.268C71.755 82.465 71.9068 81.4736 71.9928 79.3837L72.1083 76.5777L72.6922 76.7996C73.5807 77.1372 75.4329 77.0652 76.667 76.6444C78.1875 76.1264 79.8141 74.3588 80.3115 72.6847C80.615 71.6623 80.6897 70.1284 80.6897 64.9222V58.4335L83.6531 61.3633C86.3088 63.9887 86.7038 64.293 87.4584 64.293C88.4913 64.293 89.1753 63.6157 89.1753 62.5929C89.1753 61.9836 88.7529 61.4343 86.6738 59.3411C84.3282 56.9794 84.2004 56.8012 84.6248 56.4849C85.6805 55.6976 88.1611 55.7572 89.8045 56.609C91.099 57.2801 100.513 66.8598 101.014 68.0157C101.338 68.764 101.465 70.0107 101.589 73.6592C101.783 79.358 102.144 80.553 104.444 83.1019L105.271 84.0185L96.0545 93.2378L86.8376 102.457L85.5669 101.255C83.9353 99.7121 81.7431 98.6923 79.1582 98.2737C78.036 98.0922 76.7597 97.7632 76.3219 97.5427C75.8844 97.3225 73.8973 95.5328 71.9063 93.5661C68.5893 90.2891 68.2141 89.9901 67.4209 89.9901C66.4297 89.9901 65.5596 90.8523 65.5596 91.8346C65.5596 92.4936 68.7048 95.8856 72 98.78C74.214 100.725 75.5424 101.352 78.3537 101.779C80.5826 102.117 81.8281 102.67 83.1903 103.926L84.2856 104.935L83.8065 105.608C83.1956 106.466 82.99 107.502 83.2023 108.654C83.3447 109.428 84.0914 110.29 88.2139 114.445C90.878 117.129 93.3498 119.48 93.7064 119.668C94.5398 120.107 96.1421 120.107 96.9726 119.666C97.3292 119.477 103.26 113.668 110.153 106.758C123.742 93.1333 123.259 93.7136 122.843 91.4935C122.701 90.7358 121.92 89.835 117.855 85.7391C115.204 83.068 112.659 80.7041 112.199 80.4858C111.126 79.9769 109.47 80.1445 108.503 80.8597L107.787 81.3893L107.238 80.8741C106.937 80.591 106.383 79.7972 106.008 79.1106C105.432 78.0551 105.311 77.5164 105.227 75.6285L105.128 73.3953L105.751 73.5519C106.244 73.6756 106.527 73.5564 107.101 72.9817C107.955 72.1277 108.012 71.5569 107.33 70.6897C106.966 70.2271 106.612 70.0568 106.014 70.0568C105.313 70.0568 105.176 69.9617 105.062 69.3964C104.722 67.7114 104.174 66.2253 103.488 65.1285C103.076 64.4709 100.507 61.7072 97.7788 58.9869C92.3582 53.5828 91.4861 52.9673 88.5336 52.4615C86.6198 52.1337 84.5698 52.4557 82.6773 53.3815C81.6708 53.8739 81.3192 53.9493 81.0538 53.729C80.7733 53.4963 80.7015 51.485 80.6343 41.9994C80.5396 28.6164 80.6508 29.3028 78.0004 25.7324C76.8452 24.1764 76.3668 22.8019 76.3668 21.0384C76.3668 19.7022 76.3997 19.6246 77.0273 19.4769C78.1853 19.2041 79.2492 18.4024 79.7469 17.4271C80.2036 16.5318 80.226 16.0962 80.1595 9.42307C80.0929 2.7286 80.0639 2.33185 79.5941 1.70311C79.3218 1.33855 78.8006 0.817644 78.4358 0.545302C77.7814 0.0563356 77.5434 0.049611 59.8383 0.00662233C49.9744 -0.0171535 41.7417 0.0251147 41.5436 0.101005ZM76.551 9.71654L76.4869 15.9007L67.2532 15.9636C58.1617 16.0256 58.0109 16.0344 57.4667 16.5457C56.5606 17.3971 56.7618 18.6875 57.8918 19.2718C58.443 19.5569 59.9055 19.6232 65.6384 19.6232H72.7056L72.8079 21.7246C72.9251 24.1331 73.5704 25.8234 75.1946 27.9743C77.1049 30.5043 76.9593 28.6791 77.034 51.0784C77.0832 65.9054 77.028 71.3016 76.8212 71.8004C76.1502 73.4205 74.1273 73.9484 72.8379 72.8398L72.164 72.2603L72.044 61.2168C71.9306 50.7876 71.8984 50.1454 71.4664 49.6682C70.9051 49.0483 69.5107 48.9902 68.8808 49.5603C68.4641 49.9374 68.4415 50.7405 68.4401 65.2308C68.4394 74.9578 68.3491 80.8268 68.1918 81.3936C67.6906 83.1982 65.5805 83.8802 64.1922 82.6861L63.5183 82.1066L63.3982 66.1216L63.2781 50.1365L62.7512 49.6098C62.0603 48.9191 60.8931 48.9194 60.2026 49.6103L59.6757 50.1377L59.6373 67.6024C59.6164 77.2078 59.5892 85.3183 59.5772 85.6257C59.5655 85.9331 59.2398 86.5004 58.8536 86.8865C58.0359 87.7043 56.6612 87.8414 55.7412 87.1968C54.4995 86.3272 54.5123 86.5304 54.5123 67.5801C54.5123 51.1015 54.4849 49.9333 54.092 49.5791C53.3016 48.8668 52.4807 48.8341 51.7242 49.4847L51.0299 50.0817L50.9098 66.0942L50.7898 82.1066L50.1159 82.6861C49.1389 83.5265 47.7926 83.4777 46.7709 82.5649L45.9866 81.8643L45.922 64.2632L45.8571 46.6623L45.3396 46.1114C44.652 45.3794 43.6078 45.3957 42.8537 46.1501C42.2838 46.7197 42.2641 46.8523 42.2641 50.0985C42.2641 52.1188 42.1666 53.5177 42.0196 53.6085C41.3793 54.0043 39.1905 52.0196 38.441 50.3637C37.9839 49.354 37.9515 48.8091 37.9489 42.0781C37.9453 33.2033 37.7779 33.7295 41.9795 29.4051C43.5506 27.7881 45.0562 26.0333 45.3249 25.5059C46.0514 24.0796 46.587 22.0843 46.587 20.8043V19.6709L48.7693 19.5869C50.8143 19.5084 50.9881 19.4606 51.5311 18.8292C52.2399 18.005 52.261 17.4773 51.6171 16.6591L51.1238 16.0318L46.874 15.9662L42.6243 15.9007L42.5602 9.71654L42.4961 3.53242H59.5556H76.6152L76.551 9.71654ZM47.1766 8.4449C46.1078 9.51337 46.5882 11.2615 48.038 11.5799C49.3101 11.8595 50.6272 10.5965 50.3239 9.38777C49.9442 7.875 48.253 7.36826 47.1766 8.4449ZM35.8333 19.2766C35.1577 19.7497 35.09 21.2815 35.7197 21.8487C36.9791 22.9837 38.6617 22.2582 38.6617 20.58C38.6617 19.5307 38.0322 18.9027 36.9805 18.9027C36.6431 18.9027 36.1268 19.071 35.8333 19.2766ZM80.8422 19.4005C79.586 20.3888 80.2824 22.5051 81.8639 22.5051C83.5709 22.5051 84.2902 20.5766 82.9979 19.4651C82.1922 18.772 81.6614 18.7562 80.8422 19.4005ZM29.6449 23.3348C29.3206 23.6591 29.0553 24.2042 29.0553 24.5464C29.0553 25.3471 30.0558 26.3476 30.8565 26.3476C31.6937 26.3476 32.6577 25.3476 32.6577 24.4792C32.6577 23.6141 31.772 22.7452 30.8901 22.7452C30.514 22.7452 29.9828 22.9967 29.6449 23.3348ZM87.4899 23.2272C86.3786 23.6749 86.1161 25.2263 87.0093 26.0657C87.7958 26.8044 88.9287 26.7554 89.5581 25.955C90.3665 24.9276 90.1273 23.9019 88.9311 23.2647C88.3266 22.9429 88.2036 22.9398 87.4899 23.2272ZM24.1291 28.0319C23.46 28.7711 23.5654 29.9176 24.3659 30.6059C25.1022 31.2392 25.931 31.1998 26.7137 30.4945C27.2894 29.9757 27.2567 28.6318 26.6537 28.0288C26.0172 27.3923 24.7064 27.394 24.1291 28.0319ZM93.0253 28.3045C92.5133 28.5576 91.9773 29.45 91.9773 30.049C91.9773 30.2231 92.2013 30.6504 92.4751 30.9984C93.4634 32.2546 95.5797 31.5582 95.5797 29.9767C95.5797 28.6573 94.1735 27.7367 93.0253 28.3045ZM19.4906 33.6279C18.0991 35.1094 19.7702 37.2658 21.5832 36.3282C22.7244 35.7382 22.9276 34.4516 22.0152 33.5942C21.2767 32.9007 20.16 32.9155 19.4906 33.6279ZM97.3026 34.5885C97.0153 34.8942 96.7805 35.4396 96.7805 35.8004C96.7805 36.6347 97.7627 37.6352 98.5817 37.6352C99.3641 37.6352 100.383 36.6409 100.383 35.8772C100.383 34.2689 98.3874 33.4341 97.3026 34.5885ZM16.174 39.3571C15.6627 39.6047 15.126 40.4955 15.126 41.0964C15.126 41.2705 15.35 41.6977 15.6238 42.0457C16.2475 42.8387 17.5329 42.9134 18.248 42.1982C18.9632 41.483 18.8886 40.1977 18.0955 39.574C17.4029 39.0291 16.9557 38.9786 16.174 39.3571ZM101.149 41.0068C100.442 41.6651 100.442 42.9715 101.149 43.6298C102.523 44.9101 104.578 43.522 103.955 41.7345C103.514 40.4703 102.114 40.1072 101.149 41.0068ZM13.0063 46.3564C11.6384 47.8127 13.1213 49.9729 14.9951 49.2539C15.2091 49.1718 15.5506 48.7825 15.7542 48.3886C16.6812 46.5958 14.3803 44.894 13.0063 46.3564ZM104.466 47.652C103.229 48.1067 102.841 49.6994 103.745 50.6038C104.348 51.2069 105.692 51.2395 106.211 50.6639C106.419 50.4326 106.663 49.9492 106.753 49.5892C106.885 49.0596 106.778 48.7964 106.19 48.2082C105.472 47.4906 105.17 47.3931 104.466 47.652ZM11.6006 53.0508C10.8674 53.4053 10.4793 54.4358 10.7807 55.2281C11.0576 55.9565 11.7099 56.3677 12.5884 56.3677C14.1007 56.3677 14.7528 54.2228 13.5325 53.2631C12.8377 52.7165 12.3932 52.6675 11.6006 53.0508ZM105.295 55.5163C104.971 55.8405 104.706 56.3857 104.706 56.7279C104.706 57.5286 105.706 58.5291 106.507 58.5291C107.308 58.5291 108.308 57.5286 108.308 56.7279C108.308 55.9272 107.308 54.9267 106.507 54.9267C106.165 54.9267 105.62 55.1921 105.295 55.5163ZM38.2534 56.3862L38.9258 56.696L36.352 59.2777C34.2062 61.4303 33.7785 61.9814 33.7785 62.5929C33.7785 63.6157 34.4625 64.293 35.4954 64.293C36.2497 64.293 36.6446 63.9894 39.2902 61.3738L42.2429 58.4547L42.3135 70.4399L42.3842 82.4251L43.0833 83.6869C44.3278 85.9329 46.2262 86.9809 48.7388 86.8092C49.6027 86.7501 50.4819 86.626 50.6927 86.5333C50.9869 86.4038 51.1714 86.6144 51.4857 87.4379C51.7233 88.0595 52.3566 88.9361 52.9908 89.5206L54.086 90.53L50.8767 93.7595C49.1118 95.5357 47.2539 97.2041 46.7479 97.4668C46.2421 97.7298 44.9116 98.0931 43.7915 98.2745C41.211 98.6921 39.0176 99.713 37.3869 101.255L36.1162 102.457L26.8993 93.2378L17.6825 84.0185L18.5098 83.1019C20.8094 80.553 21.1708 79.358 21.3646 73.6592C21.4885 70.0107 21.6156 68.764 21.94 68.0157C22.2138 67.3836 24.0549 65.3461 27.3268 62.0537C33.1932 56.1506 33.6853 55.8163 36.2601 55.9882C36.9866 56.0367 37.8836 56.2159 38.2534 56.3862ZM10.7154 60.4679C9.49516 61.4276 10.1472 63.5725 11.6595 63.5725C13.0613 63.5725 13.8692 62.4918 13.4235 61.2129C13.1944 60.5556 12.3658 59.9701 11.6648 59.9701C11.4907 59.9701 11.0634 60.1942 10.7154 60.4679ZM106.232 62.6121C105.626 62.8539 104.946 63.7541 104.946 64.3141C104.946 64.531 105.17 64.9933 105.444 65.3413C106.432 66.5976 108.548 65.9011 108.548 64.3196C108.548 63.0718 107.33 62.1738 106.232 62.6121ZM11.3605 67.4605C10.6273 67.8149 10.2392 68.8455 10.5406 69.6377C10.8175 70.3662 11.4698 70.7773 12.3483 70.7773C13.8606 70.7773 14.5126 68.6324 13.2923 67.6728C12.5976 67.1261 12.153 67.0772 11.3605 67.4605ZM12.4842 74.86C11.769 75.5752 11.8437 76.8606 12.6367 77.4843C13.5039 78.1666 14.0748 78.1094 14.9288 77.2556C15.5169 76.6675 15.6243 76.4043 15.492 75.8747C15.4021 75.5147 15.1581 75.031 14.9499 74.8C14.4312 74.2243 13.0872 74.257 12.4842 74.86ZM115.154 88.0701L119.473 92.3939L107.406 104.46L95.34 116.527L90.9578 112.144L86.5753 107.762L98.5817 95.754C105.185 89.1496 110.643 83.746 110.711 83.746C110.779 83.746 112.779 85.6917 115.154 88.0701ZM110.166 90.2903C109.583 90.7332 109.245 91.8177 109.49 92.4616C109.804 93.2866 110.417 93.6886 111.363 93.6886C112.403 93.6886 113.111 92.9263 113.111 91.8067C113.111 90.383 111.283 89.4418 110.166 90.2903ZM77.1291 104.955C76.3904 105.742 76.4394 106.875 77.2398 107.504C78.2819 108.324 79.2877 108.127 79.877 106.988C80.804 105.195 78.5031 103.493 77.1291 104.955ZM42.0239 106.081C41.3087 106.796 41.3834 108.081 42.1764 108.705C42.9956 109.349 43.5264 109.334 44.3321 108.641C45.6244 107.529 44.9051 105.601 43.1981 105.601C42.8164 105.601 42.2881 105.817 42.0239 106.081ZM27.2214 106.602C26.6585 106.875 26.1733 107.755 26.1733 108.505C26.1733 109.245 27.237 110.164 28.0946 110.164C28.9522 110.164 30.0159 109.245 30.0159 108.505C30.0159 107.719 29.5219 106.872 28.8975 106.588C28.1996 106.27 27.9023 106.272 27.2214 106.602ZM70.5297 107.068C69.4212 107.713 69.5564 109.588 70.7507 110.132C71.5843 110.512 71.8881 110.475 72.6119 109.906C73.854 108.929 73.172 106.792 71.6237 106.809C71.2606 106.813 70.7682 106.929 70.5297 107.068ZM49.0253 107.942C48.7522 108.173 48.459 108.657 48.374 109.017C48.2498 109.541 48.3632 109.815 48.9456 110.398C49.7996 111.252 50.3704 111.309 51.2377 110.626C52.4939 109.638 51.7975 107.522 50.216 107.522C49.8344 107.522 49.2986 107.711 49.0253 107.942ZM63.714 108.239C61.9755 108.957 62.6227 111.605 64.537 111.605C65.3927 111.605 66.2801 110.685 66.2801 109.798C66.2801 108.635 64.8533 107.769 63.714 108.239ZM56.5092 108.484C54.8317 109.16 55.4229 111.845 57.2496 111.845C58.8736 111.845 59.6373 109.983 58.4857 108.832C57.8692 108.215 57.3872 108.13 56.5092 108.484Z" fill="#133553"/>
</g>
<defs>
<filter id="filter0_d_1010_88" x="0" y="0" width="123.992" height="121" filterUnits="userSpaceOnUse" color-interpolation-filters="sRGB">
<feFlood flood-opacity="0" result="BackgroundImageFix"/>
<feColorMatrix in="SourceAlpha" type="matrix" values="0 0 0 0 0 0 0 0 0 0 0 0 0 0 0 0 0 0 127 0" result="hardAlpha"/>
<feOffset dx="1" dy="1"/>
<feComposite in2="hardAlpha" operator="out"/>
<feColorMatrix type="matrix" values="0 0 0 0 0 0 0 0 0 0 0 0 0 0 0 0 0 0 0.05 0"/>
<feBlend mode="multiply" in2="BackgroundImageFix" result="effect1_dropShadow_1010_88"/>
<feBlend mode="normal" in="SourceGraphic" in2="effect1_dropShadow_1010_88" result="shape"/>
</filter>
</defs>
</svg>
