<svg width="172" height="120" viewBox="0 0 172 120" fill="none" xmlns="http://www.w3.org/2000/svg">
<path d="M37.801 81.1752L39.3683 84.4118C39.3683 84.4118 64.2191 104.591 85.5044 104.591C106.79 104.591 131.752 84.4118 131.752 84.4118L133.206 81.1752H133.206C130.817 74.0354 127.883 64.2328 125.825 53.8798L121.277 51.3223H49.0633L45.1815 53.8788C43.1234 64.2321 40.1891 74.0351 37.8 81.1749L37.801 81.1752Z" fill="#0099E6"/>
<path d="M58.9075 52.4209L60.5751 51.3226H49.0637L45.1819 53.8792C43.1238 64.2325 40.1894 74.0354 37.8004 81.1752H37.8007L39.368 84.4118C39.368 84.4118 43.193 87.5173 49.1255 91.2915C52.6028 79.6768 56.1486 66.2976 58.9075 52.4209Z" fill="black" fill-opacity="0.1"/>
<path d="M166.981 29.3265L89.6564 3.19363C86.9634 2.2836 84.0458 2.2836 81.3525 3.19363L4.02854 29.3265C2.03231 30.0012 1.85612 32.756 3.75005 33.6794L79.8216 70.7671C83.4082 72.5156 87.6006 72.5156 91.1872 70.7671L167.259 33.6794C169.153 32.756 168.977 30.0012 166.981 29.3265Z" fill="#365E7D"/>
<path d="M27.1529 33.6794C25.2586 32.756 25.4352 30.0012 27.4314 29.3265L97.206 5.74517L89.6567 3.19363C86.9637 2.2836 84.0461 2.2836 81.3531 3.19363L4.02854 29.3265C2.03231 30.0012 1.85612 32.756 3.75005 33.6794L79.8216 70.7671C83.4086 72.5156 87.6006 72.5156 91.1872 70.7671L97.2057 67.8327L27.1529 33.6794Z" fill="black" fill-opacity="0.1"/>
<path d="M154.237 98.0718H145.458L144.414 114.309C144.327 115.654 145.365 116.794 146.676 116.794H153.019C154.33 116.794 155.367 115.654 155.28 114.309L154.237 98.0718Z" fill="#FBD106"/>
<path d="M151.879 86.402H147.815C145.79 86.402 144.134 88.0585 144.134 90.0832V97.3905C144.134 98.0551 144.673 98.594 145.337 98.594H154.357C155.021 98.594 155.56 98.0551 155.56 97.3905V90.0832C155.56 88.0585 153.904 86.402 151.879 86.402Z" fill="#FBD106"/>
<path d="M150.597 97.3905V90.0832C150.597 88.4784 151.639 87.1087 153.079 86.6079C152.702 86.4769 152.299 86.402 151.879 86.402H147.815C145.79 86.402 144.134 88.0585 144.134 90.0832V97.3905C144.134 98.0554 144.673 98.594 145.337 98.594H151.801C151.136 98.5944 150.597 98.0554 150.597 97.3905Z" fill="#FFD064"/>
<path d="M86.0216 19.2716C81.2007 18.9794 77.1995 22.803 77.1995 27.5607V27.6029C77.2102 29.7425 79.0032 31.4482 81.1428 31.4482H89.8663C91.9348 31.4482 93.9287 29.8478 93.7993 27.1539C93.599 22.9638 90.2087 19.5253 86.0216 19.2716Z" fill="#231F20" fill-opacity="0.25"/>
<path d="M133.206 81.1751C124.492 88.338 110.321 96.3547 95.0118 101.288C88.9439 103.244 82.2183 103.294 75.9956 101.288C60.7215 96.3657 46.5559 88.3671 37.8014 81.1748C36.9635 83.6779 36.1929 85.855 35.5507 87.6118C34.4478 90.6298 35.3979 94.0218 37.9241 96.0073C51.9201 107.008 66.6931 113.018 75.9956 116.015C79.0677 117.005 82.2762 117.501 85.5037 117.501C88.7313 117.501 91.9397 117.005 95.0118 116.015C104.314 113.018 119.087 107.007 133.083 96.0073C135.61 94.0218 136.56 90.6298 135.457 87.6118C134.815 85.8553 134.044 83.6782 133.206 81.1751Z" fill="#BED8FB"/>
<path d="M49.6905 89.3926C45.119 86.6762 41.0804 83.8693 37.801 81.1753C36.9635 83.6784 36.1926 85.8555 35.5504 87.6123C34.4474 90.6302 35.3976 94.0223 37.9237 96.0078C40.5635 98.0826 43.2311 99.9795 45.8846 101.713C47.1216 97.8803 48.404 93.7525 49.6905 89.3926Z" fill="#231F20" fill-opacity="0.05"/>
<path d="M167.86 26.9422L131.728 14.7311C130.417 14.2898 128.993 14.9919 128.55 16.3038C128.106 17.6157 128.81 19.0389 130.122 19.4822L165.909 31.5769L149.064 39.7896C148.364 39.3178 147.579 38.9558 146.728 38.7334L96.2004 25.5281C94.5943 17.2653 84.4209 13.7974 78.1721 19.6778C76.0093 21.7131 74.769 24.5833 74.769 27.5524V27.6072C74.7867 31.1032 77.6803 33.9473 81.2197 33.9473H89.9435C92.1962 33.9473 94.4492 32.7718 95.6176 30.5589L142.738 42.874C127.849 50.1328 94.4258 66.428 90.1652 68.5054C87.1576 69.9715 83.8067 69.8752 80.9974 68.5054L5.25315 31.5769L82.2321 5.56069C84.3914 4.83053 86.7708 4.83053 88.9302 5.56069L118.985 15.7184C120.297 16.1614 121.719 15.4583 122.163 14.1457C122.606 12.8339 121.902 11.4107 120.59 10.9673L90.5359 0.809644C87.3405 -0.269881 83.8218 -0.269881 80.6263 0.809644L3.30238 26.9422C-0.805767 28.3317 -1.17653 34.0215 2.72801 35.9248L42.4113 55.272C40.2282 65.651 36.895 76.825 33.2723 86.743C31.7893 90.799 33.067 95.311 36.451 97.9709C47.9032 106.972 61.4346 113.925 75.3032 118.395C81.8205 120.494 89.0877 120.575 95.8577 118.395C109.731 113.923 123.263 106.967 134.71 97.9709C138.106 95.3007 139.366 90.7867 137.888 86.743C134.342 77.045 130.963 65.7981 128.75 55.273L147.416 46.1724V83.9107C144.226 84.1551 141.703 86.8233 141.703 90.0752V97.3822C141.703 98.4677 142.174 99.4429 142.92 100.122L141.988 114.205C141.807 116.956 143.994 119.294 146.752 119.294H153.096C155.852 119.294 158.041 116.957 157.859 114.205L156.928 100.122C157.673 99.4429 158.145 98.468 158.145 97.3822V90.0749C158.145 86.8229 155.622 84.1547 152.431 83.9103V46.1179C152.431 45.3473 152.31 44.6008 152.093 43.892L168.434 35.9251C172.334 34.0238 171.975 28.3337 167.86 26.9422ZM89.9435 28.9325H81.2197C80.4451 28.9325 79.7875 28.314 79.7838 27.5945V27.5524C79.7838 25.9369 80.4317 24.4375 81.6089 23.3296C85.2199 19.9312 91.1374 22.3774 91.3717 27.2652C91.4276 28.4356 90.674 28.9325 89.9435 28.9325ZM130.355 80.2973C116.808 90.9 97.5825 98.4847 90.9602 99.7471C89.5999 100.007 88.7075 101.32 88.967 102.68C89.2264 104.041 90.5433 104.933 91.8996 104.673C98.8265 103.352 117.805 95.9767 132.052 85.3148C132.402 86.3141 132.808 87.4518 133.178 88.4645C133.914 90.4771 133.284 92.7123 131.611 94.0279C118.107 104.64 103.878 110.54 94.3195 113.62C88.6099 115.461 82.4086 115.415 76.8415 113.62C67.2825 110.54 53.0535 104.64 39.5502 94.0279C37.8776 92.713 37.2464 90.4781 37.9829 88.4641C37.9976 88.424 38.012 88.3832 38.0267 88.3431C38.3911 87.3448 38.795 86.2118 39.1089 85.3141C53.0194 95.7209 71.946 103.279 79.2589 104.674C80.621 104.933 81.9325 104.041 82.1919 102.681C82.4514 101.321 81.5591 100.008 80.1991 99.7482C73.9472 98.5563 54.6559 91.132 40.8056 80.297C42.8419 74.0696 45.2016 66.0666 47.0564 57.5367L78.7996 73.0124C83.0261 75.0732 87.9714 75.1538 92.363 73.0124L124.104 57.5374C125.959 66.0669 128.319 74.0699 130.355 80.2973ZM147.009 114.279L147.881 101.093H151.966L152.838 114.279H147.009ZM153.13 90.0745V96.0783H146.718V90.0745C146.718 89.4383 147.255 88.9007 147.892 88.9007H151.956C152.592 88.9011 153.13 89.4383 153.13 90.0745Z" fill="#133553"/>
</svg>
