<svg width="110" height="120" viewBox="0 0 110 120" fill="none" xmlns="http://www.w3.org/2000/svg">
<path d="M60.6338 43.2552H72.9851V101.692H60.6338V43.2552Z" fill="#DDEAFB"/>
<path d="M36.28 43.2552H48.6314V101.692H36.28V43.2552Z" fill="#DDEAFB"/>
<path d="M11.9263 43.2552H24.2777V101.692H11.9263V43.2552Z" fill="#DDEAFB"/>
<path d="M84.9872 43.2552H97.3385V101.692H84.9872V43.2552Z" fill="#DDEAFB"/>
<path d="M60.6338 43.2552H66.6348V101.692H60.6338V43.2552Z" fill="#BED8FB"/>
<path d="M36.28 43.2552H42.2811V101.692H36.28V43.2552Z" fill="#BED8FB"/>
<path d="M11.9263 43.2552H17.9274V101.692H11.9263V43.2552Z" fill="#BED8FB"/>
<path d="M84.9872 43.2552H90.9882V101.692H84.9872V43.2552Z" fill="#BED8FB"/>
<path d="M106.898 36.4307L55.4733 2.01829C54.9703 1.68173 54.3143 1.68173 53.8113 2.01829L2.36719 36.4441C1.95282 36.7213 1.70392 37.187 1.70392 37.6858V42.845C1.70392 43.6702 2.37281 44.3391 3.19803 44.3391H106.067C106.892 44.3391 107.561 43.6702 107.561 42.845V37.6724C107.561 37.1737 107.312 36.708 106.898 36.4307Z" fill="#365E7D"/>
<path d="M16.0788 42.845V37.6858C16.0788 37.1873 16.3275 36.7213 16.7421 36.4441L61.8299 6.27188L55.4733 2.01829C54.9703 1.68173 54.3143 1.68173 53.8113 2.01829L2.36719 36.4441C1.95282 36.7213 1.70392 37.187 1.70392 37.6858V42.845C1.70392 43.6702 2.37281 44.3391 3.19803 44.3391H17.5727C16.7477 44.3391 16.0788 43.6702 16.0788 42.845Z" fill="#231F20" fill-opacity="0.1"/>
<path d="M102.897 109.522V103.531C102.897 101.945 101.599 100.647 100.012 100.647H9.25263C7.66617 100.647 6.36823 101.945 6.36823 103.531V109.522H102.897V109.522Z" fill="#0099E6"/>
<path d="M23.6273 100.647H9.25238C7.66616 100.647 6.36798 101.945 6.36798 103.531V109.522H20.7426V103.531C20.7429 101.945 22.0408 100.647 23.6273 100.647Z" fill="#231F20" fill-opacity="0.1"/>
<path d="M54.6325 34.9706C58.5801 34.9706 61.7803 31.7704 61.7803 27.8228C61.7803 23.8751 58.5801 20.6749 54.6325 20.6749C50.6848 20.6749 47.4846 23.8751 47.4846 27.8228C47.4846 31.7704 50.6848 34.9706 54.6325 34.9706Z" fill="#FBD106"/>
<path d="M105.951 109.053H3.3144C2.42496 109.053 1.70404 109.774 1.70404 110.663V116.638C1.70404 117.527 2.42496 118.248 3.3144 118.248H105.951C106.84 118.248 107.561 117.527 107.561 116.638V110.663C107.561 109.774 106.84 109.053 105.951 109.053Z" fill="#0099E6"/>
<path d="M16.0787 116.638V110.664C16.0787 109.774 16.7996 109.053 17.6891 109.053H3.3144C2.42496 109.053 1.70404 109.774 1.70404 110.664V116.638C1.70404 117.527 2.42496 118.248 3.3144 118.248H17.6891C16.7999 118.248 16.0787 117.527 16.0787 116.638Z" fill="#231F20" fill-opacity="0.1"/>
<path d="M54.6864 36.7222C59.5969 36.7222 63.592 32.7272 63.592 27.8166C63.592 22.9061 59.5969 18.911 54.6864 18.911C49.7758 18.911 45.7808 22.9061 45.7808 27.8166C45.7808 32.7272 49.7758 36.7222 54.6864 36.7222ZM54.6864 22.4266C57.6587 22.4266 60.0764 24.8446 60.0764 27.8166C60.0764 30.7887 57.6587 33.2067 54.6864 33.2067C51.7141 33.2067 49.2963 30.7887 49.2963 27.8166C49.2963 24.8446 51.7141 22.4266 54.6864 22.4266Z" fill="#133553"/>
<path d="M3.36814 120H50.5849C51.5559 120 52.3427 119.213 52.3427 118.242C52.3427 117.271 51.5559 116.484 50.5849 116.484H3.51556V110.805H105.857V116.484H58.7879C57.8169 116.484 57.0301 117.271 57.0301 118.242C57.0301 119.213 57.8169 120 58.7879 120H106.004C107.862 120 109.373 118.489 109.373 116.632V110.658C109.373 108.8 107.862 107.289 106.004 107.289H104.708V103.525C104.708 100.965 102.626 98.8827 100.066 98.8827H99.1503V76.5882C99.1503 75.6175 98.3635 74.8304 97.3925 74.8304C96.4215 74.8304 95.6348 75.6175 95.6348 76.5882V98.8827H86.799V46.0907H95.6348V68.3852C95.6348 69.356 96.4215 70.143 97.3925 70.143C98.3635 70.143 99.1503 69.356 99.1503 68.3852V46.0907H106.121C107.914 46.0907 109.373 44.632 109.373 42.8388V37.6663C109.373 36.5788 108.833 35.5687 107.93 34.9637H107.929L56.5047 0.551328C55.4059 -0.183893 53.9861 -0.183659 52.8876 0.551328L1.44372 34.9771C0.53999 35.5818 0.000234242 36.5922 0.000234242 37.6799V42.8391C0.000234242 44.6322 1.45896 46.091 3.25189 46.091H10.2223V98.883H9.30639C6.7466 98.883 4.66421 100.965 4.66421 103.525V107.29H3.36814C1.51099 107.29 0 108.801 0 110.658V116.632C0 118.489 1.51099 120 3.36814 120ZM3.5158 42.5752V37.8205L54.6963 3.57143L105.857 37.8071V42.5754C105.316 42.5752 5.80489 42.5752 3.5158 42.5752ZM83.2834 46.0907V98.8827H74.7966V46.0907H83.2834ZM71.281 46.0907V98.8827H62.4453V46.0907H71.281ZM58.9297 46.0907V98.8827H50.4431V46.0907H58.9297ZM46.9276 46.0907V98.8827H38.0918V46.0907H46.9276ZM34.576 46.0907V98.8827H26.0892V46.0907H34.576ZM22.5737 46.0907V98.8827H13.7379V46.0907H22.5737ZM8.17977 103.525C8.17977 102.914 8.69562 102.398 9.30639 102.398H100.066C100.677 102.398 101.193 102.914 101.193 103.525V107.289H8.17977V103.525Z" fill="#133553"/>
</svg>
